<svg width="173" height="205" viewBox="0 0 173 205" fill="none" xmlns="http://www.w3.org/2000/svg">
<g clip-path="url(#clip0_426_228)">
<path fill-rule="evenodd" clip-rule="evenodd" d="M172.875 158.023C172.396 156.082 170.978 155.164 169.186 155.06C167.31 154.934 165.413 155.06 163.537 155.289C161.974 155.498 160.452 156.061 158.889 156.395C157.513 156.687 156.992 156.374 156.659 155.101C156.054 152.889 155.429 150.656 154.971 148.402C153.074 138.948 150.26 129.724 147.175 120.646C143.715 110.42 140.276 100.131 135.44 90.427C133.398 86.3158 131.188 82.2462 128.666 78.4271C125.477 73.5854 121.85 69.015 117.661 64.9872C115.139 62.5664 112.513 60.2708 109.886 57.9543C108.24 56.4934 106.26 55.9299 104.071 56.0969C103.258 56.1595 102.445 56.389 102.195 57.3073C101.945 58.2047 102.362 58.956 103.112 59.3316C106.155 60.8551 108.156 63.5472 110.449 65.8846C115.347 70.9141 119.599 76.4654 123.414 82.3714C126.561 87.234 129.417 92.3261 131.543 97.7522C134.294 104.848 137.004 111.943 139.484 119.143C141.652 125.383 143.653 131.707 145.445 138.051C147.238 144.416 148.697 150.865 150.323 157.272C150.719 158.858 150.719 158.962 149.176 159.901C146.529 161.487 143.84 162.99 141.172 164.576C140.193 165.16 139.338 164.952 138.338 164.576C136.774 163.971 135.169 163.282 133.523 163.115C126.895 162.426 120.621 163.866 114.764 166.934C113.117 167.811 111.741 168.082 109.991 167.435C106.864 166.246 103.571 166.225 100.257 166.475C97.0469 166.705 93.962 167.456 91.0023 168.666C89.71 169.188 88.5845 169.084 87.2922 168.604C85.6247 167.978 83.8322 167.331 82.123 167.352C75.474 167.456 69.0542 168.812 63.1347 171.964C61.3213 172.924 59.8831 172.924 58.1531 171.88C55.777 170.44 53.2341 169.251 50.4411 168.75C46.3975 168.04 42.333 167.602 38.2477 168.228C36.6428 168.479 35.6423 167.978 34.621 166.851C31.4528 163.407 27.5342 161.07 23.1988 159.442C21.448 158.795 19.5721 158.461 17.8004 157.981C17.7587 157.689 17.6753 157.48 17.717 157.313C20.1348 147.901 22.2192 138.406 25.2415 129.181C27.3049 122.9 29.4518 116.639 31.6612 110.42C33.3495 105.703 35.0587 101.008 37.0388 96.3957C40.3946 88.5279 44.8134 81.2445 50.1284 74.5872C54.5472 69.0568 58.8201 63.3594 64.8439 59.3734C65.5525 58.8934 66.0111 58.2464 65.761 57.3282C65.5108 56.4099 64.7188 56.1804 63.8851 56.1177C61.7174 55.9508 59.7789 56.5769 58.0489 57.9543C52.9423 62.0238 48.3568 66.6359 44.2715 71.6863C37.9559 79.5123 33.0786 88.2149 29.3476 97.5852C25.8251 106.434 22.4901 115.324 19.6346 124.402C17.1542 132.333 14.6947 140.284 12.9647 148.423C12.2977 151.553 11.2555 154.6 10.4843 157.71C10.1717 158.941 9.50471 159.526 8.33748 159.88C6.54495 160.444 4.7941 161.195 3.04326 161.926C1.56338 162.531 0.687958 163.72 0.146031 165.202C-0.10409 165.891 -0.208307 166.725 0.521211 167.059C0.917235 167.247 1.79266 167.039 2.08446 166.705C3.50181 165.056 5.48193 164.68 7.37868 164.096C8.48338 163.762 8.83772 164.096 8.56675 165.306C7.64965 169.313 6.71169 173.32 5.71121 177.306C5.02338 180.019 4.18964 182.691 3.50181 185.404C3.00157 187.386 3.58519 188.158 5.52362 188.534C6.92013 188.805 7.87892 188.117 8.54591 187.052C9.23374 185.967 9.75483 184.757 10.2134 183.546C12.5687 177.348 14.0486 170.899 15.7786 164.534C16.2371 162.844 16.6331 162.531 18.3006 162.802C20.781 163.199 23.0529 164.263 25.2206 165.494C26.8464 166.433 28.3471 167.623 29.7853 168.875C30.8483 169.793 30.7441 170.252 29.7228 171.275C29.5143 171.484 29.2851 171.692 29.0766 171.901C24.7829 176.284 25.3248 182.586 30.2647 186.197C31.7237 187.261 33.3495 187.595 35.0587 187.428C37.5182 187.198 38.9772 186.009 39.3524 183.567C39.6442 181.605 39.4983 179.581 39.4566 177.578C39.4149 176.221 39.2065 174.865 39.0815 173.487C40.4571 173.341 41.8328 173.174 43.2084 173.049C43.7087 173.007 44.2089 173.007 44.7092 173.028C48.2525 173.049 51.6083 174.009 54.7974 175.449C56.2981 176.138 56.4231 176.659 55.777 178.287C55.6728 178.558 55.4852 178.809 55.4018 179.101C54.4013 182.252 54.6515 185.237 56.6941 187.929C58.4866 190.287 62.1759 190.934 64.3645 189.181C64.9481 188.722 65.4483 188.012 65.7193 187.324C66.8448 184.423 66.2821 181.626 65.0523 178.871C63.9893 176.492 64.0101 176.284 66.4488 175.407C70.0964 174.072 73.8065 172.882 77.7667 172.819C79.4551 172.798 81.1434 172.715 82.8317 172.778C83.8113 172.819 84.0614 173.32 83.7071 174.155C83.5612 174.531 83.3945 174.906 83.1443 175.219C81.2893 177.703 81.4143 180.541 82.0813 183.275C82.6441 185.529 83.8739 187.449 86.2917 188.346C90.0643 189.744 95.1293 186.343 95.1084 182.628C95.1084 181.334 95.1918 179.998 94.9208 178.746C94.6082 177.285 93.9829 175.908 93.4826 174.489C93.1075 173.445 93.2325 173.091 94.2747 172.632C94.8166 172.402 95.4002 172.256 95.9838 172.11C98.9228 171.338 101.924 171.317 104.905 171.588C105.947 171.672 106.947 172.172 107.969 172.465C107.781 173.32 107.469 174.155 107.406 175.011C107.302 176.388 107.26 177.807 107.385 179.185C107.573 181.292 108.969 182.837 110.72 183.504C113.659 184.631 116.702 184.819 119.704 183.296C121.371 182.44 121.996 181.042 121.976 179.393C121.934 177.265 121.371 175.24 119.891 173.571C119.308 172.903 118.745 172.235 117.911 171.233C123.08 168.666 128.166 167.978 133.377 168.353C136.17 168.562 136.357 169 135.044 171.421C133.189 174.802 133.002 178.329 134.231 181.898C135.44 185.466 139.109 186.739 142.235 184.715C144.632 183.171 146.05 180.979 146.112 178.016C146.154 175.658 145.695 173.466 144.778 171.296C143.903 169.251 143.944 169.167 145.841 167.894C146.904 167.164 148.092 166.642 149.218 165.995C151.886 164.492 151.948 164.451 152.824 167.393C153.678 170.273 154.262 173.237 155.158 176.096C156.221 179.435 157.43 182.711 158.722 185.967C159.077 186.844 159.806 187.657 160.557 188.263C161.682 189.16 162.87 188.555 163.912 187.95C164.85 187.407 164.684 186.468 164.433 185.529C164.079 184.277 163.85 182.983 163.537 181.731C161.974 175.72 160.369 169.731 158.847 163.699C158.535 162.489 158.764 162.176 160.161 161.905C163.1 161.341 166.038 160.861 168.977 160.36C169.957 160.193 170.957 160.11 171.937 159.88C173.021 159.567 173.167 159.129 172.875 158.023ZM33.558 181.376C32.0155 181.167 31.1193 180.082 30.3481 178.913C30.1188 178.558 30.1605 177.932 30.2439 177.473C30.3064 177.098 30.5357 176.701 30.8066 176.451C31.6821 175.637 32.6617 174.51 33.8289 174.906C34.4751 175.115 34.8086 176.492 35.1212 177.411C35.3713 178.162 35.413 178.976 35.4755 179.414C35.4339 181.042 34.8294 181.522 33.558 181.376ZM61.3213 184.214C60.3208 184.548 59.2161 183.943 58.8618 183.066C58.4658 182.085 58.841 180.541 59.6955 180.145C60.0499 179.978 60.8211 180.04 61.0087 180.311C61.5923 181.084 61.9675 182.002 62.5302 183.024C62.0925 183.463 61.7799 184.047 61.3213 184.214ZM89.5433 182.544C88.4386 183.066 87.4381 182.899 86.521 182.106C85.6455 181.355 85.583 180.416 85.854 179.393C86.1875 178.12 86.7294 176.91 87.9175 176.242C88.3135 176.012 89.1264 176.054 89.5016 176.325C90.6688 177.202 91.2316 178.454 91.2107 179.498C91.1899 181.167 90.6271 182.044 89.5433 182.544ZM116.41 178.517C115.743 178.642 115.035 178.642 114.222 178.705C113.867 178.684 113.326 178.788 112.909 178.6C112.242 178.287 111.262 177.849 111.158 177.327C111.033 176.597 111.408 175.595 111.887 174.948C112.513 174.134 113.471 174.364 114.284 174.906C115.181 175.511 116.119 176.054 116.931 176.764C117.661 177.411 117.348 178.35 116.41 178.517ZM140.61 178.976C139.984 179.498 138.942 179.915 138.213 179.769C137.15 179.56 137.337 178.391 137.379 177.494C137.462 175.616 138.213 174.03 139.526 172.715C139.963 172.298 140.422 172.298 140.818 172.736C142.319 174.364 142.277 177.598 140.61 178.976Z" fill="white"/>
<path fill-rule="evenodd" clip-rule="evenodd" d="M156.013 189.765C155.367 189.348 154.554 189.077 153.803 188.931C151.615 188.534 149.468 188.722 147.363 189.619C143.215 191.351 139.15 193.209 135.545 195.984C132.168 198.614 128.479 199.365 124.31 197.737C121.642 196.694 118.932 195.692 116.014 195.4C114.347 195.233 112.659 194.878 111.054 194.377C106.614 193 102.091 192.583 97.4637 192.708C93.9829 192.791 90.8147 193.835 87.9175 195.734C87.0004 196.339 86.0416 196.861 85.1245 197.466C83.1652 198.802 80.9975 198.969 78.8298 198.301C75.9951 197.424 73.2021 196.36 70.3674 195.4C65.9902 193.918 61.6131 192.771 56.9234 193.897C52.3795 195.004 47.8357 196.11 43.4586 197.779C39.5192 199.282 36.0383 198.53 32.7242 196.214C32.4741 196.047 32.2448 195.859 32.0155 195.671C28.4513 192.812 24.3035 191.122 20.1557 189.411C18.0505 188.534 15.8619 188.513 13.6942 189.014C12.8605 189.202 12.0059 189.703 11.4014 190.308C10.4843 191.226 10.7345 192.353 11.8183 192.708C12.6521 192.979 13.5275 193.543 14.3195 193.459C18.0505 193.063 21.1353 194.419 24.0742 196.506C27.43 198.864 30.9525 200.889 34.7877 202.454C38.8105 204.082 42.729 204.123 46.6893 202.433C47.6064 202.037 48.5027 201.598 49.4406 201.223C55.2559 198.864 61.1546 198.009 67.1992 200.263C69.9088 201.264 72.5559 202.433 75.2864 203.351C77.329 204.04 79.4759 204.437 81.6645 204.979C83.1652 204.52 84.6451 204.228 85.9374 203.581C87.6257 202.746 89.2514 201.703 90.7313 200.534C91.8777 199.616 93.1283 199.136 94.504 198.844C97.8389 198.155 101.195 198.071 104.571 198.51C106.551 198.76 108.511 199.157 110.491 199.282C113.576 199.47 116.64 199.616 119.287 201.536C119.995 202.057 120.913 202.308 121.746 202.621C125.331 203.977 128.916 204.103 132.543 202.663C135.607 201.452 138.588 200.054 141.339 198.197C142.84 197.195 144.34 196.214 145.862 195.233C148.03 193.835 150.427 193.209 152.991 193.417C154.033 193.501 154.929 193.355 155.846 192.833C157.368 192.019 157.534 190.746 156.013 189.765Z" fill="white"/>
<path fill-rule="evenodd" clip-rule="evenodd" d="M61.1544 6.36514C61.7588 6.42775 62.4675 6.09384 63.0303 5.80167C64.0724 5.25907 65.0104 4.38255 66.0942 4.02777C71.0133 2.4417 75.2862 3.56865 78.9338 7.26253C80.3928 8.74425 81.8727 10.2469 83.3942 11.666C84.5823 12.772 84.8116 12.772 85.8955 11.7912C87.292 10.5182 88.6885 9.22425 89.9599 7.826C92.0443 5.53037 94.4621 3.81908 97.5678 3.4643C100.819 3.10952 103.946 3.44343 106.468 5.90602C106.676 6.11471 106.947 6.28167 107.218 6.36514C108.156 6.61558 109.115 6.38601 109.615 5.61385C109.907 5.17559 109.761 4.25734 109.511 3.69386C108.907 2.35822 107.718 1.52345 106.384 1.06432C99.1102 -1.48174 91.8358 0.521716 86.8959 5.63472C86.2081 6.34428 85.5411 7.09557 84.7074 8.01383C83.9362 7.17905 83.4151 6.59471 82.8523 6.03123C77.433 0.375631 70.9716 -1.27305 63.4888 0.897365C61.9047 1.35649 60.5916 2.23301 59.8204 3.75647C59.1326 5.15472 59.612 6.21906 61.1544 6.36514Z" fill="white"/>
<path fill-rule="evenodd" clip-rule="evenodd" d="M56.319 27.5893C57.778 30.5319 59.2162 33.4954 61.2172 36.1458C62.0093 37.1684 62.7596 38.2536 63.3432 39.3805C64.8648 42.2814 66.2821 45.2657 67.8037 48.1874C68.1997 48.9596 68.7625 49.69 69.3461 50.337C69.5545 50.5665 70.1173 50.6917 70.3883 50.5665C70.6592 50.4413 70.8677 49.9405 70.8677 49.6065C70.8885 46.4761 70.43 43.4709 68.9292 40.6327C67.5327 37.9823 65.8027 35.5614 64.0102 33.1823C60.3418 28.3198 59.1537 22.9772 60.7586 17.0712C61.0505 16.0068 61.3839 14.9634 61.5715 13.8782C61.78 12.7303 60.8837 11.6243 59.5497 11.5199C59.3205 11.666 58.7994 11.8121 58.5284 12.1669C57.8823 13.0434 57.1736 13.9408 56.7984 14.9425C55.4227 18.6781 55.1309 22.5181 55.8813 26.4415C56.0064 26.838 56.1314 27.2346 56.319 27.5893Z" fill="white"/>
<path fill-rule="evenodd" clip-rule="evenodd" d="M108.094 12.5842C107.906 13.0016 107.823 13.5651 107.906 14.0242C108.094 15.1094 108.427 16.1529 108.678 17.2381C109.782 22.1007 109.657 26.7754 106.739 31.0536C106.239 31.7841 105.78 32.5771 105.259 33.3075C103.592 35.7701 101.758 38.1284 100.403 40.7996C98.9645 43.6379 98.4434 46.6431 98.506 49.7943C98.5268 50.7126 99.3188 51.1091 99.9025 50.5039C100.59 49.8152 101.195 49.0013 101.632 48.1248C103.154 45.2031 104.509 42.1979 106.135 39.3388C107.406 37.0849 109.115 35.0814 110.387 32.8275C112.096 29.8015 114.076 26.838 114.118 23.0815C113.742 20.7233 113.513 18.3024 112.909 16.0068C112.534 14.6086 111.637 13.2938 110.762 12.1042C110.053 11.1442 108.594 11.4573 108.094 12.5842Z" fill="white"/>
<path fill-rule="evenodd" clip-rule="evenodd" d="M45.5219 112.611C46.5849 112.882 46.8768 112.027 47.1477 111.276C47.6688 109.773 48.1274 108.229 48.6901 106.726C50.5243 101.738 52.7337 96.9383 55.1099 92.1801C59.1327 84.1036 63.4681 76.2359 68.7623 68.9316C69.5335 67.8881 70.2839 66.8238 70.93 65.6968C71.1384 65.342 71.1384 64.4655 70.9717 64.3821C70.4923 64.1734 69.8253 64.0481 69.3668 64.236C68.7415 64.4864 68.1787 64.9873 67.741 65.509C66.407 67.1159 64.9688 68.6811 63.8641 70.455C61.0294 75.0463 58.2572 79.6793 55.631 84.3958C51.6082 91.6583 47.7939 99.0252 45.1676 106.956C44.8341 107.999 44.5423 109.043 44.3547 109.669C44.3547 110.336 44.3547 110.524 44.3547 110.733C44.313 111.63 44.6257 112.382 45.5219 112.611Z" fill="white"/>
<path fill-rule="evenodd" clip-rule="evenodd" d="M89.0011 21.8502C92.5028 17.3216 96.7132 13.8155 102.278 12.1668C102.924 11.979 103.571 11.6034 104.113 11.2069C104.258 11.0816 104.217 10.3721 104.029 10.226C103.195 9.51643 102.195 9.57904 101.194 9.76686C97.797 10.4556 94.7956 11.9582 92.1901 14.2329C90.1683 16.0068 88.2299 17.8851 86.2915 19.7633C85.562 20.4729 84.8741 20.4311 84.2071 19.7842C83.4151 19.0329 82.6647 18.219 81.9352 17.4051C78.7462 13.7947 74.4733 12.6468 70.1379 12.0208C69.7418 12.0416 69.5334 12.0416 69.3458 12.0625C68.0535 12.146 67.0947 13.0225 67.0947 14.3164C67.0947 15.4851 68.0327 15.7146 68.9498 15.8816C69.1374 15.9233 69.3667 15.9025 69.5334 15.9651C73.6187 17.3425 77.5998 18.8868 80.3303 22.5389C80.8514 23.2485 81.6017 23.812 82.2895 24.3754C83.957 25.7319 85.1451 25.7319 86.7917 24.292C87.6046 23.5615 88.3341 22.7059 89.0011 21.8502Z" fill="white"/>
<path fill-rule="evenodd" clip-rule="evenodd" d="M87.5009 68.702C87.4592 68.3889 87.0424 67.9924 86.7506 67.9298C86.4379 67.8672 85.8543 68.0759 85.7292 68.3263C85.2498 69.3072 84.7288 70.3089 84.5829 71.3732C84.0826 74.6289 83.5407 77.9054 83.3739 81.2027C83.0613 86.7957 82.9154 92.4096 82.8737 98.0235C82.8528 101.029 83.1238 104.013 83.3739 107.018C83.4365 107.769 83.7908 108.562 84.2494 109.168C84.8747 110.023 86.0419 109.689 86.2503 108.604C86.4171 107.728 86.4379 106.809 86.4379 105.912C86.5838 94.2878 86.0419 82.6636 87.5843 71.728C87.5218 70.288 87.6051 69.495 87.5009 68.702Z" fill="white"/>
<path fill-rule="evenodd" clip-rule="evenodd" d="M100.424 105.223C100.194 102.844 99.9443 100.444 99.6524 98.0652C98.8812 91.8044 98.0892 85.5645 97.2763 79.3245C97.1929 78.6567 97.1721 77.7802 96.2133 77.8011C95.317 77.8011 95.1919 78.6567 95.046 79.3037C94.921 79.888 94.8793 80.4932 94.9001 81.0775C94.9418 82.5801 94.9418 84.0827 95.1086 85.5645C95.8381 92.2218 96.6093 98.8791 97.3388 105.536C97.714 108.813 98.0058 112.11 98.4227 115.387C98.5269 116.263 98.8604 117.098 99.1939 117.912C99.2356 118.037 100.048 118.058 100.132 117.912C100.444 117.432 100.736 116.848 100.757 116.284C100.841 114.698 100.778 113.091 100.778 111.484C100.841 111.484 100.903 111.484 100.966 111.484C100.778 109.418 100.632 107.31 100.424 105.223Z" fill="white"/>
<path fill-rule="evenodd" clip-rule="evenodd" d="M117.848 94.2461C118.203 94.7887 118.786 95.1853 119.62 95.9783C119.829 93.1609 119.558 91.554 118.244 89.1749C115.722 84.5419 113.221 79.888 110.47 75.4011C108.907 72.8759 106.927 70.6011 105.071 68.2637C104.363 67.3872 103.487 67.6377 103.091 68.702C102.674 69.8289 103.279 70.622 103.863 71.4359C107.614 76.6741 110.387 82.5175 113.847 87.9436C115.181 90.0514 116.473 92.1801 117.848 94.2461Z" fill="white"/>
<path fill-rule="evenodd" clip-rule="evenodd" d="M65.3857 84.0202C65.9902 83.5402 66.6363 83.0184 67.0115 82.3715C68.7832 79.1576 70.138 75.7141 72.4308 72.7924C72.7851 72.3542 72.8685 71.7072 72.9727 71.3942C72.9518 70.3924 72.0764 69.9124 71.4511 70.309C71.1176 70.5177 70.805 70.789 70.5757 71.0811C67.9286 74.3785 66.011 78.0515 64.8021 82.1002C64.6562 82.5802 64.5311 83.081 64.5937 83.561C64.5937 83.7489 65.2815 84.1036 65.3857 84.0202Z" fill="white"/>
<path fill-rule="evenodd" clip-rule="evenodd" d="M124.56 111.964C124.894 111.776 125.06 111.276 125.373 110.796C124.789 109.168 124.247 107.561 123.601 106.016C123.455 105.641 122.934 105.411 122.58 105.119C122.309 105.599 121.684 106.163 121.788 106.538C122.267 108.249 122.893 109.919 123.56 111.547C123.706 111.797 124.373 112.069 124.56 111.964Z" fill="white"/>
</g>
<defs>
<clipPath id="clip0_426_228">
<rect width="173" height="205" fill="white"/>
</clipPath>
</defs>
</svg>
