<svg width="339" height="276" viewBox="0 0 339 276" fill="none" xmlns="http://www.w3.org/2000/svg">
<g clip-path="url(#clip0_301_15435)">
<path d="M24.0634 106.938C24.4035 106.344 23.2957 106.089 23.1433 105.937C22.9459 107.115 24.3364 107.011 24.0634 106.938Z" fill="white"/>
<path d="M24.6504 119.02L24.0709 117.73L23.6297 117.542C23.6297 117.542 23.8665 117.904 24.1244 118.318C24.4136 118.658 24.6504 119.02 24.6504 119.02Z" fill="white"/>
<path d="M23.3002 120.968C23.5137 123.016 24.9452 125.366 24.6013 126.785C25.4609 126.195 25.3074 125.433 24.9333 124.578C24.5592 123.723 24.0538 122.768 24.4144 121.921L24.8442 121.626L23.3002 120.968Z" fill="white"/>
<path d="M21.5398 131.528C21.5874 131.722 21.6404 132.006 21.7409 132.484C22.3908 131.978 22.6189 133.38 21.6496 131.27C21.6236 131.433 21.5712 131.455 21.5398 131.528Z" fill="white"/>
<path d="M21.5396 131.527C21.2488 130.576 21.1046 132.345 21.5396 131.527V131.527Z" fill="white"/>
<path d="M21.736 135.962C22.4885 137.152 22.8026 136.72 23.2471 135.779L22.2534 134.746C21.9025 135.162 22.1668 136.276 21.736 135.962Z" fill="white"/>
<path d="M24.9536 136.462L24.4751 135.954C24.3232 136.106 24.334 136.285 24.9536 136.462Z" fill="white"/>
<path d="M23.9393 135.377C24.1707 135.65 24.4388 135.938 24.4388 135.938C24.6378 135.675 25.2147 135.442 24.0128 135.409C24.5637 135.339 23.9863 135.267 23.4398 134.817C23.4554 134.78 23.7079 135.105 23.9393 135.377Z" fill="white"/>
<path d="M24.6861 133.216C23.7482 131.033 22.5685 131.662 23.5118 133.934C23.6784 133.135 23.6768 132.22 24.6861 133.216Z" fill="white"/>
<path d="M26.611 126.858L27.0187 125.901L26.2986 125.246C26.677 125.581 26.0131 127.039 26.611 126.858Z" fill="white"/>
<path d="M25.3072 143.485C25.6953 143.389 26.0981 142.647 26.528 142.352L25.7187 141.703C25.6986 142.26 25.8262 143.184 25.3072 143.485Z" fill="white"/>
<path d="M26.5281 142.352L27.7314 143.299C27.3044 142.16 26.9054 142.078 26.5281 142.352Z" fill="white"/>
<path d="M27.1841 136.324L26.9997 135.941C26.9997 135.941 26.4743 135.543 25.9488 135.145C25.439 134.711 24.9135 134.313 24.9135 134.313C24.9135 134.313 25.4655 134.853 26.0331 135.355C26.564 135.842 27.1841 136.324 27.1841 136.324Z" fill="white"/>
<path d="M26.4593 148.021C26.4593 148.021 26.9161 148.172 27.4097 148.339C27.8822 148.453 28.3758 148.62 28.3758 148.62L27.6405 148.307L26.4593 148.021Z" fill="white"/>
<path d="M30.5989 153.699C29.8896 153.223 29.5052 152.494 29.5188 151.238C28.5635 151.136 28.8127 152.59 28.0617 152.314C28.6613 153.048 29.7009 153.36 30.5989 153.699Z" fill="white"/>
<path d="M31.975 154.241C31.6388 154.011 31.1295 153.881 30.5991 153.699C30.9722 153.945 31.4133 154.133 31.975 154.241Z" fill="white"/>
<path d="M28.058 146.918L28.8224 145.939C28.7592 145.782 28.6592 145.608 28.596 145.451C28.4284 145.641 27.9569 146.136 28.058 146.918Z" fill="white"/>
<path d="M28.8223 145.939C29.0699 146.479 29.2175 146.847 29.2964 146.967C29.2331 146.81 29.1067 146.495 28.8537 145.865L28.8223 145.939Z" fill="white"/>
<path d="M28.5168 145.33C28.5379 145.383 28.5747 145.398 28.559 145.435C28.6798 145.356 28.6955 145.319 28.5168 145.33Z" fill="white"/>
<path d="M29.7557 139.464C28.8318 139.288 28.6971 140.318 27.3473 139.612C28.2349 140.077 29.5069 141.272 29.7557 139.464Z" fill="white"/>
<path d="M28.7713 143.611C29.1075 143.842 29.4648 144.124 29.4648 144.124L29.0583 142.733C28.8172 142.892 28.5031 143.323 28.0777 143.099C28.0777 143.099 28.4507 143.344 28.7713 143.611Z" fill="white"/>
<path d="M30.1527 144.548L29.517 144.103L29.6386 144.633L30.1527 144.548Z" fill="white"/>
<path d="M31.545 151.579C32.2959 151.855 32.6852 152.369 33.1533 153.003C32.8895 152.195 32.5733 151.408 32.1208 150.736C31.7694 150.848 31.019 150.876 31.545 151.579Z" fill="white"/>
<path d="M30.2649 148.771C30.3017 148.787 30.3228 148.84 30.3965 148.871C30.4436 148.76 30.4382 148.671 30.2649 148.771Z" fill="white"/>
<path d="M37.5566 158.879L37.3833 158.98L37.4624 159.101C37.4938 159.027 37.5252 158.953 37.5566 158.879Z" fill="white"/>
<path d="M32.2521 150.531C32.1408 149.875 31.7207 149.74 31.2271 149.573C31.5531 149.929 31.8634 150.322 32.1213 150.737C32.3154 150.689 32.4203 150.646 32.2521 150.531Z" fill="white"/>
<path d="M33.5677 155.702C33.5618 155.308 33.5559 154.914 33.4764 154.489C33.3775 154.925 33.2844 155.756 33.5677 155.702Z" fill="white"/>
<path d="M30.2032 149.223C30.1663 149.208 30.1295 149.192 30.0927 149.176C30.0196 149.45 30.1403 149.371 30.2032 149.223Z" fill="white"/>
<path d="M31.2269 149.573C30.9587 149.285 30.7116 149.049 30.3964 148.871C30.3494 148.982 30.3024 149.092 30.2186 149.187C30.5181 149.402 30.9171 149.484 31.2269 149.573Z" fill="white"/>
<path d="M39.5928 159.094C39.7436 158.332 38.8052 155.844 40.2595 156.203C41.757 157.275 40.8444 157.583 40.9617 158.633C41.5051 157.255 43.8962 159.187 45.111 157.66L43.6141 156.892C43.8341 156.681 44.5586 156.815 44.5105 156.316C43.6141 156.892 41.9127 156.298 42.0409 154.569C40.6494 154.063 38.3397 156.734 37.5563 158.88C37.9179 158.642 38.2796 158.405 39.5928 159.094Z" fill="white"/>
<path d="M37.3832 158.98C37.3832 158.98 36.9886 158.377 36.5783 157.811C36.168 157.245 35.8258 156.62 35.8258 156.62L36.0621 156.678L35.6258 156.274C35.8788 156.904 35.775 157.556 35.6511 158.764C36.628 159.224 37.0529 159.144 37.3832 158.98Z" fill="white"/>
<path d="M33.5232 154.379C33.5648 154.179 33.6486 154.084 33.6594 154.263C33.6594 154.263 33.6962 154.278 33.7329 154.294C33.8535 154.215 33.9952 154.188 34.1368 154.161C34.4163 154.933 33.9746 154.44 33.7329 154.294C33.6281 154.336 33.5913 154.321 33.5232 154.379L35.6256 156.274C35.4305 155.713 34.9834 155.131 34.1368 154.161C35.3381 153.89 36.4993 154.732 37.0427 153.354C36.0329 152.054 35.6198 152.922 34.6375 152.374C36.3415 154.491 33.6871 152.056 34.2206 154.067C33.7687 153.7 33.4427 153.344 33.1691 152.966C33.3064 153.46 33.4437 153.953 33.4918 154.452C33.4918 154.452 33.5075 154.415 33.5232 154.379Z" fill="white"/>
<path d="M32.5636 139.702C32.5164 139.812 32.4114 139.855 32.3588 139.876C32.5641 140.007 32.6534 140.001 32.5636 139.702Z" fill="white"/>
<path d="M31.2847 140.463C31.3387 141.356 30.937 142.707 30.6439 143.191C31.3198 142.522 31.8069 141.99 32.3562 141.006C32.1356 140.912 31.6371 140.961 31.5101 140.341C31.6139 139.689 31.9978 140.114 32.3438 139.913C31.9026 139.725 31.0566 139.061 31.0273 140.353L31.2847 140.463Z" fill="white"/>
<path d="M30.6441 143.191C30.5758 143.249 30.5075 143.307 30.4761 143.381C30.5129 143.396 30.5969 143.301 30.6441 143.191Z" fill="white"/>
<path d="M35.1542 147.591L34.6563 147.945C34.2449 146.769 33.7421 147.338 33.2648 147.439L34.8682 149.079L35.1542 147.591Z" fill="white"/>
<path d="M36.0208 160.14L38.1725 160.186L37.1745 159.674L36.0208 160.14Z" fill="white"/>
<path d="M38.2762 162.492L39.258 162.736L39.1202 161.938L38.2762 162.492Z" fill="white"/>
<path d="M187.345 192.214L187.911 191.802C187.634 191.945 187.445 192.082 187.345 192.214Z" fill="white"/>
<path d="M183.001 192.93L182.997 193.451C183.138 193.119 183.18 192.919 183.001 192.93Z" fill="white"/>
<path d="M99.0587 199.858C99.6695 201.075 100.26 202.85 100.495 201.688L100.566 200.5C99.868 200.507 99.4214 200.23 99.0587 199.858Z" fill="white"/>
<path d="M146.901 201.222C146.822 201.101 146.743 200.98 146.664 200.86C146.418 201.233 146.224 201.586 145.994 201.923C146.267 201.691 146.576 201.475 146.901 201.222Z" fill="white"/>
<path d="M148.846 197.265C148.599 197.029 148.226 196.783 147.69 196.512L148.846 197.265Z" fill="white"/>
<path d="M210.377 185.448L210.727 184.118C209.672 184.452 210.308 184.897 210.377 185.448Z" fill="white"/>
<path d="M61.8936 181.684C62.3045 182.555 62.7829 183.063 63.2349 183.429C62.7397 182.348 62.6797 181.061 61.8936 181.684Z" fill="white"/>
<path d="M187.645 204.565C187.986 204.275 188.132 204.033 188.064 203.786C187.739 204.039 187.54 204.302 187.645 204.565Z" fill="white"/>
<path d="M63.2344 183.429C63.5874 184.232 64.1501 184.95 65.2622 184.684C65.1989 184.527 65.12 184.406 65.02 184.233C64.4372 184.072 63.8334 183.858 63.2344 183.429Z" fill="white"/>
<path d="M286.268 144.599C286.358 144.594 286.41 144.572 286.5 144.567C286.421 144.446 286.352 144.504 286.268 144.599Z" fill="white"/>
<path d="M47.013 171.041C46.5233 170.658 46.871 171.068 47.013 171.041V171.041Z" fill="white"/>
<path d="M48.6249 165.419C48.3834 165.578 48.2258 165.641 48.047 165.652C48.2258 165.641 48.4202 165.593 48.6249 165.419Z" fill="white"/>
<path d="M74.1204 181.627L74.1572 181.642C74.1253 181.411 74.1096 181.448 74.1204 181.627Z" fill="white"/>
<path d="M46.7173 170.001C46.7859 170.248 46.8757 170.547 47.0703 170.804C47.0438 170.662 46.9384 170.4 46.7173 170.001Z" fill="white"/>
<path d="M46.4243 170.486C46.2873 170.297 46.2083 170.176 46.1081 170.002C45.9348 170.103 45.8876 170.214 46.4243 170.486Z" fill="white"/>
<path d="M47.0134 171.041C47.1815 171.156 47.3708 171.324 47.707 171.554C47.4232 171.303 47.2129 171.082 47.0339 170.789C47.0972 170.946 47.1026 171.035 47.0134 171.041Z" fill="white"/>
<path d="M249.459 173.729C249.495 173.744 249.548 173.723 249.622 173.754C249.92 173.053 249.737 173.28 249.459 173.729Z" fill="white"/>
<path d="M117.014 192.367C116.977 192.351 116.962 192.388 116.946 192.425C116.983 192.44 117.02 192.456 117.02 192.456L117.014 192.367Z" fill="white"/>
<path d="M119.176 191.982C118.034 193.236 117.567 192.906 117.004 192.493L116.958 195.866L119.176 191.982Z" fill="white"/>
<path d="M185.468 192.85C185.61 192.823 185.678 192.765 185.678 192.765C185.61 192.823 185.52 192.829 185.468 192.85Z" fill="white"/>
<path d="M45.4632 163.769C45.4902 164.215 45.5329 164.625 45.5329 164.625C43.9894 164.272 41.5225 164.048 40.7587 162.375C40.0531 164.032 41.1106 162.568 40.5791 164.734C41.0808 163.556 41.8485 164.405 42.5426 165.222C43.2368 166.04 43.9358 166.642 44.2062 165.191C43.5281 167.599 45.0916 167.395 44.9542 169.859C45.3051 169.443 45.2619 168.729 46.1036 169.914C46.2609 169.85 46.4918 169.818 46.6702 169.807C46.6912 169.86 46.6912 169.86 46.7123 169.912C46.728 169.875 46.7069 169.823 46.7069 169.823C46.7961 169.817 46.8118 169.78 46.7226 169.786C46.6431 169.361 46.6372 168.967 46.7627 168.672C47.4498 168.486 48.185 168.799 48.9046 169.149C49.6242 169.499 50.2913 169.87 50.7951 169.911C51.253 170.671 50.0923 170.133 50.0831 170.869L51.5736 170.938C50.8616 171.896 51.9882 173.942 49.9873 173.134L51.3172 174.396C51.6816 175.682 52.733 176.782 53.7305 176.989C54.2408 177.729 56.2552 177.282 55.0907 177.569C55.0907 177.569 55.7524 177.85 56.4509 178.148C56.7818 178.289 57.1126 178.43 57.3699 178.539C57.6273 178.649 57.8111 178.727 57.8111 178.727L57.6646 178.969C59.9189 180.712 63.4665 180.744 65.0364 184.196C66.0181 184.44 67.0156 184.647 68.1774 185.795L67.9167 186.815C69.1348 187.116 70.6241 189.533 71.6043 188.863C71.3998 191.995 76.585 192.159 78.2825 193.578L78.9469 192.425C80.2601 193.115 81.6879 193.331 83.5671 193.609L83.964 192.473C85.7583 192.237 87.3109 194.812 89.6529 195.635C89.3177 196.015 88.7765 195.654 88.4819 195.224C89.3403 196.981 90.9833 197.202 92.6257 197.119C94.2525 197.072 95.8738 196.936 96.7999 198.331C97.5762 198.139 97.9703 198.438 98.3174 198.846C98.2439 198.815 98.1914 198.836 98.139 198.857C98.2125 198.889 98.286 198.92 98.3963 198.967C98.612 199.276 98.8277 199.586 99.0748 199.821C98.8748 199.475 98.7115 199.145 98.5223 198.977C99.0316 199.107 99.8241 199.184 100.627 199.134L100.566 200.5C100.64 200.531 100.677 200.547 100.729 200.526C101.308 201.207 101.474 200.103 101.393 199.069C101.818 198.989 102.222 198.856 102.568 198.655C102.556 200.825 104.641 198.581 104.834 200.882C105.572 200.065 108.276 200.956 109.439 199.45C110.185 199.941 110.925 200.344 111.811 199.895L111.767 201.529L114.063 199.809C114.889 201.031 115.252 201.708 113.894 202.652C116.915 201.372 116.193 202.456 118.772 200.988L118.475 201.992C119.288 202.121 120.813 200.987 121.119 201.901C122.551 204.25 129.892 203.635 134.33 205.96C133.747 202.841 136.358 207.52 136.769 205.128C136.975 205.868 137.611 206.313 136.751 206.904C139.206 206.34 140.275 208.317 142.056 206.379C142.298 207.135 141.491 207.4 141.68 207.872C141.869 207.735 142.487 207.302 142.693 207.738C142.898 208.173 142.316 208.317 141.886 208.612C144.379 208.673 144.727 206.429 144.975 204.316C146.21 205.495 146.85 205.419 147.772 204.072C148.172 204.764 148.86 205.492 147.37 205.728C148.2 205.82 152.552 206.716 152.649 205.061C152.891 205.512 153.803 205.205 154.023 204.994C155.929 205.109 156.081 205.261 157.933 205.093L157.398 204.821C158.097 202.77 158.929 204.386 160.398 204.098L160.356 204.298C163.817 205.554 161.777 203.511 165.249 204.945L164.995 203.706C165.116 200.974 168.088 205.11 169.97 203.954L169.213 203.284C170.172 202.257 172.525 206.826 173.664 207.006C173.927 207.205 173.314 207.422 173.004 207.639C176.019 208.922 173.206 205.941 175.262 205.294C175.762 206.16 175.009 207.622 176.442 207.624C177.267 208.236 180.209 204.182 182.358 205.662C181.837 205.049 181.332 204.399 182.208 203.771C183.65 203.342 186.667 205.844 187.628 203.383C187.87 203.529 187.97 203.702 187.98 203.881C189.008 203.1 191.499 202.247 191.958 200.964C192.907 203.02 194.537 202.149 196.042 201.267C197.546 200.385 198.888 199.478 199.311 201.441L202.684 200.355L202.69 200.749C204.946 200.448 205.469 199.322 206.007 198.159C206.59 198.32 206.313 198.768 206.308 198.983C208.008 198.968 208.953 198.891 209.681 198.506C210.447 198.136 211.065 197.398 212.054 195.993L212.681 197.173C213.178 196.21 217.851 197.678 220.46 195.222C220.487 195.364 220.503 195.632 220.304 195.895C221.802 194.619 224.196 194.812 226.116 194.586C228.073 194.375 229.636 193.866 229.38 191.408L231.177 189.433C228.16 190.193 230.853 187.338 229.367 187.053C230.4 186.362 232.8 187.253 231.505 188.05L231.211 187.925C231.614 190.446 235.135 187.378 235.678 188.957C238.447 187.657 241.305 186.656 244.169 185.744C245.59 185.261 247.033 184.832 248.396 184.281C249.76 183.731 251.102 183.128 252.371 182.494L250.889 181.08L252.719 180.25C253.391 180.405 254.069 181.26 252.727 181.862C253.893 182.489 254.419 179.929 254.234 179.546C257.062 178.923 254.349 182.031 255.099 181.698L256.079 181.028L255.717 180.961C256.166 179.803 255.834 179.053 257.402 178.329C258.556 178.168 258.468 179.087 258.909 178.971C258.988 179.091 259.13 179.064 259.502 178.701L261.74 177.523L260.117 176.745C260.687 175.508 262.178 175.578 260.298 174.69C263.087 176.095 268.792 170.651 270.125 170.784C270.82 168.948 272.057 168.083 273.698 167.085C273.126 167.103 271.922 165.851 273.379 165.079C274.902 168.338 276.701 164.623 279.322 165.913C278.334 165.58 279.236 164.789 280.032 164.041C280.828 163.292 281.399 162.361 279.944 162.003C281.213 161.368 280.812 163.024 282.119 163.015C283.845 159.879 288.352 159.188 291.254 156.248C290.996 155.834 290.025 155.768 290.244 154.643L293.639 154.828C294.079 154.102 292.412 152.304 294.575 152.529C294.155 152.394 293.53 152.128 293.844 151.696C297.509 149.82 300.338 146.849 302.882 143.626C304.202 142.057 305.58 140.555 307.183 139.237C307.864 138.657 308.656 138.124 309.447 137.592C309.716 137.88 310.036 138.147 310.43 138.445C310.1 138.609 309.779 138.342 309.596 138.264C308.417 139.502 308.554 139.69 310.147 141.456L308.845 141.25C309.486 141.784 306.271 142.807 307.35 144.659C307.203 144.596 306.982 144.502 306.83 144.35C307.883 146.365 302.259 147.232 306.723 149.089L307.575 150.453C308.303 149.153 309.518 151.193 310.447 150.849C310.574 151.469 308.664 151.874 308.637 151.122L308.867 151.09C306.52 150.178 307.542 152.57 305.936 152.06C305.295 154.789 303.247 157.049 302.433 159.573L304.291 159.798L303.93 160.645C303.437 160.783 302.366 160.545 302.617 159.956C301.473 159.991 303.233 161.262 303.616 161.382C302.532 162.399 301.563 160.29 301.406 160.658L301.438 161.194L301.685 161.125C302.331 161.748 303.135 162.003 302.821 162.74C302.323 163.093 301.598 162.654 301.483 162.822C301.373 162.775 301.268 162.818 301.321 163.101L300.866 164.169L302.456 164.107C303.035 164.788 302.106 165.132 303.911 165.074C301.12 165.104 301.856 168.984 300.938 169.202C301.821 170.187 301.612 170.881 301.231 171.676C301.582 171.564 303.267 171.89 302.896 172.559C299.546 171.35 301.034 173.463 298.416 173.391C300.184 173.318 298.225 175.572 300.775 175.397C300.341 175.908 299.484 175.064 298.55 175.319C299.466 177.145 296.813 178.277 296.785 180.179C297.242 180.33 297.987 180.212 298.575 180.767L296.088 181.1C296.22 181.504 298.604 182.128 296.862 182.343C297.209 182.447 297.854 182.461 297.907 182.745C294.753 185.664 297.726 190.41 292.624 192.805C293.631 192.582 293.616 192.923 293.549 193.286C293.806 193.091 294.678 193.593 295.276 193.717L293.189 194.742C294.791 195.468 292.84 196.377 294.416 196.961L294.294 196.431C296.028 197.56 298.771 196.728 301.181 197.493C299.221 196.18 304.9 196.51 302.11 194.496C302.677 194.389 302.835 194.935 303.444 194.933C302.477 194.347 302.345 193.943 302.995 193.437L303.237 193.583C303.48 191.686 304.739 191.178 306.005 189.325L304.74 189.134C305.039 188.739 305.432 188.733 305.784 188.622C304.092 187.597 305.356 189.831 303.433 188.839C306.052 188.91 304.336 185.699 307.244 186.111C307.452 185.417 305.8 185.932 306.009 185.237L306.833 185.24L305.893 184.797C306.191 184.402 307.178 184.43 307.85 184.586C307.729 184.665 307.961 184.938 307.987 185.079C309.041 184.745 308.115 183.35 308.467 183.239L307.817 183.745C307.603 181.697 309.237 179.696 308.189 177.466L307.58 177.468C306.906 175.789 308.492 176.551 308.447 174.922L308.578 175.022C308.084 174.551 307.931 174.094 308.104 173.689C308.692 174.244 309.604 173.327 310.219 174.024C309.502 172.24 309.551 173.044 307.701 171.473L308.724 171.517C307.973 170.936 307.516 170.785 307.468 169.982C308.109 170.82 309.021 169.903 309.904 170.889C312.421 169.873 308.456 167.966 311.668 168.073C309.251 166.609 309.827 169.029 309.401 168.5C308.441 168.613 307.631 167.354 308.019 166.954C308.222 166.475 311.603 167.001 311.884 165.729C311.837 165.839 312.021 165.918 311.974 166.028C312.797 165.726 311.347 164.848 312.601 164.555C311.104 163.787 312.915 163.819 310.888 163.173L311.016 164.402C310.663 163.599 308.472 162.319 309.93 161.547C310.319 161.756 310.776 162.212 310.992 162.521C311.663 162.372 310.77 161.818 311.457 161.632C313.447 162.262 311.497 163.171 312.837 164.308C313.797 164.194 311.747 162.582 313.827 163.511C311.191 162.258 314.528 162.374 312.631 160.914L313.818 161.289C313.681 161.1 313.172 160.666 313.281 160.408L314.731 161.286C313.575 160.228 316.299 160.257 315.709 159.397C315.365 160.817 314.182 159.313 313.128 159.647C311.975 157.459 316.56 159.542 316.504 157.43C316.593 157.729 315.513 158.226 315.066 157.645C315.407 157.355 316.009 156.959 316.707 156.951C316.805 155.601 315.427 156.798 314.827 156.064C316.438 156.054 314.385 155.267 314.074 154.569L315.313 154.922C316.492 153.684 312.866 153.837 314.181 152.787L315.747 153.802L315.483 152.994L316.822 153.52C315.991 152.514 316.322 152.35 316.892 151.723C315.974 151.637 314.682 151 314.822 150.364C315.667 150.114 315.931 150.922 315.982 149.987C316.67 150.411 317.594 150.891 316.345 150.969C316.713 151.125 317.07 151.408 317.454 151.527C318.424 151.288 317.976 150.402 318.044 150.039C317.96 150.134 317.845 150.302 317.667 150.313L316.304 148.515C316.819 148.43 317.139 148.697 317.46 148.964C317.407 148.68 316.866 148.319 316.875 147.888C317.847 148.258 318.865 148.518 319.213 149.232L318.454 147.647C319.016 147.756 319.944 147.412 320.281 147.642C321.072 147.109 318.818 145.366 319.851 144.675C319.682 144.56 319.53 144.408 319.409 144.182C319.88 143.382 321.322 142.953 320.233 141.532L322.18 141.447C322.016 140.507 319.719 141.617 319.412 140.095C319.226 138.493 321.102 139.901 321.773 139.447C321.42 138.949 320.878 138.283 320.641 137.617C320.404 136.95 320.476 136.372 321.451 135.613C321.678 136.101 321.306 136.464 321.333 136.911C321.333 136.911 321.673 136.621 322.035 136.383C322.376 136.093 322.716 135.803 322.716 135.803C324.057 137.244 323.146 138.466 324.939 137.315C323.133 137.068 323.367 135.906 323.601 134.745C323.835 133.583 324.07 132.421 322.134 132.684L323.155 131.814C323.061 132.035 323.276 132.04 323.182 132.261C325.483 130.326 320.615 131.864 321.62 130.117C322.081 129.443 322.809 128.752 323.182 128.998C323.182 128.998 323.024 128.757 322.866 128.516C322.708 128.275 322.535 128.07 322.535 128.07C322.676 127.739 323.2 127.527 323.264 127.685L323.481 125.95L323.586 125.908C322.998 125.962 322.101 125.928 321.723 125.898C322.477 125.044 322.132 125.854 322.714 125.406C322.714 125.406 321.936 124.988 321.921 125.025C323.194 123.871 324.102 124.083 323.726 124.967C326.09 123.19 325.9 123.022 325.501 122.939C325.118 122.819 324.473 122.806 326.154 120.694L326.396 121.45C329.2 118.946 328.517 118.612 330.59 115.884C330.103 116.416 328.851 117.928 327.673 119.166C326.457 120.388 325.299 121.374 324.911 121.165C325.34 120.565 325.643 119.955 324.877 120.02C326.554 118.733 326.333 118.334 326.468 117.609L328.633 115.79C328.264 115.329 327.075 116.388 326.168 116.785C326.67 115.607 328.545 113.752 330.127 112.077C330.597 110.972 329.728 111.994 328.859 113.016C327.937 114.058 326.978 115.086 326.987 114.35C327.882 112.861 327.85 112.325 327.409 112.137C326.685 112.612 325.841 113.166 324.929 113.778C324.839 113.174 326.501 112.229 326.841 111.634L324.268 113.801C324.126 113.828 324.697 113.201 325.001 112.895C323.68 113.855 322.749 115.329 321.229 116.248C319.966 117.581 320.348 116.786 320.483 116.061C320.618 115.335 320.439 114.737 318.799 116.344C318.982 115.813 319.983 114.891 320.558 114.048C318.965 115.24 318.383 115.689 317.733 116.195C317.136 116.68 316.492 117.276 315.109 118.688C315.161 118.667 314.881 117.59 314.881 117.59C314.731 118.962 312.521 121.196 311.065 122.881C310.856 123.576 310.694 124.159 310.59 124.506C310.59 124.506 310.218 124.87 309.809 125.218C309.437 125.581 309.081 125.908 309.081 125.908C309.133 125.582 309.572 124.856 310.179 123.94C310.012 124.13 309.881 124.335 309.766 124.503C309.78 123.857 310.492 122.594 311.403 121.373C311.335 121.735 311.252 122.135 311.169 122.534C312.09 121.187 313.216 119.665 313.822 118.445C313.571 118.729 313.299 118.961 313.042 119.156C313.325 118.798 313.555 118.461 313.596 118.261C313.638 118.062 313.256 118.551 312.737 119.157C312.737 119.157 312.936 118.589 313.171 118.037C313.369 117.469 313.552 116.937 313.552 116.937L313.019 117.885C313.071 117.864 311.626 117.074 311.574 117.096C309.107 119.83 307.15 123.303 305.51 124.605C306.111 122.991 305.915 122.124 306.148 120.353C306.307 121.204 306.737 120.908 307.313 120.371C307.853 119.817 308.612 119.053 309.169 119.073C308.612 119.053 308.968 118.117 309.25 117.759C309.25 117.759 308.59 118.391 307.909 118.971C307.301 119.583 306.709 120.157 306.709 120.157C306.995 118.669 306.419 119.207 305.909 118.772C306.003 121.509 304.208 121.136 303.449 122.205C303.358 121.296 303.514 120.319 304.563 120.2C303.974 119.34 303.566 120.297 303.263 121.213C302.945 122.164 302.768 123.09 302.1 122.414C302.31 122.329 302.478 122.444 302.519 121.94C302.075 122.881 300.647 122.665 300.793 121.813L301.055 121.708C300.042 121.842 299.25 122.07 298.585 122.613C297.919 123.156 297.448 123.956 297.676 125.054C297.57 124.791 297.068 122.402 297.004 121.94L297.07 129.842C296.705 127.946 294.677 123.733 295.346 122.365C294.994 122.172 294.553 121.984 294.156 122.815C294.419 123.014 295.42 125.354 295.221 125.618C293.927 123.762 294.411 124.664 293.012 123.155C293.407 123.453 293.947 126.467 293.485 126.532C293.422 126.069 292.614 123.681 292.682 123.319L292.315 126.425C292.44 125.825 291.665 123.973 291.155 123.234C291.455 123.753 290.184 123.473 289.938 123.847L290.632 124.36C289.231 124.285 290.556 128.72 289.281 128.961C289.243 128.336 288.571 125.222 287.862 125.051C287.991 126.584 288.652 132.477 287.862 133.924L287.404 133.164L286.85 134.363C286.725 132.005 286.847 126.924 287.154 124.879C286.512 124.345 286.737 123.919 286.04 124.231C285.566 123.508 286.069 122.939 286.258 122.802L284.447 122.77C285.033 124.455 283.679 124.879 284.175 126.265L285.452 123.981C286.037 125.665 285.854 129.154 284.584 129.179C284.1 128.582 283.912 126.066 283.717 125.504C283.755 126.129 282.927 126.951 282.706 126.553L282.946 125.48C282.095 125.031 282.546 128.05 281.279 126.641C280.99 126.605 279.817 124.67 280.076 125.693C281.081 127.513 282.949 133.529 283.078 135.063C282.947 134.963 281.128 133.623 280.502 132.748C279.613 131.369 280.092 128.919 279.339 127.729C279.44 128.207 279.388 128.837 279.331 129.074C278.937 128.775 279.008 127.588 278.458 127.962C278.87 129.748 277.146 128.187 278.587 129.496C278.126 130.17 277.841 129.309 277.144 129.621C277.691 130.681 277.618 133.607 277.157 134.281C277.078 133.856 276.756 133.284 276.635 133.059C275.376 133.262 274.446 132.692 273.319 132.995C273.097 132.596 272.378 132.246 272.403 131.474C272.335 131.837 272.336 132.446 272.006 132.61C270.87 131.3 272.729 132.135 271.682 130.515C271.941 131.538 271.192 132.176 270.862 132.949C271.474 134.471 272.096 132.909 272.425 132.136C273.037 134.267 272.832 136.789 271.911 138.137C271.12 138.975 271.1 136.879 270.996 137.226C269.107 137.378 270.552 141.43 268.64 140.311C267.635 139.1 267.795 137.603 267.379 136.642C267.997 135.905 268.807 137.164 269.332 136.952L268.481 136.503C268.574 135.977 269.009 135.466 269.424 135.817C268.572 134.758 266.314 136.493 264.586 135.757C264.492 136.283 264.189 136.893 264.541 137.392L264.934 137.08C265.639 138.077 264.575 138.841 265.242 139.213C264.887 140.149 264.58 141.584 263.572 141.198L262.96 139.676C263.113 140.133 263.759 140.451 263.869 139.889C263.702 140.688 261.955 138.161 262.211 140.314L263.126 141.226C262.755 142.199 262.527 144.059 261.65 143.773C262.435 145.194 261.781 143.567 262.828 145.188C261.733 143.069 264.753 144.746 263.317 142.612C264.454 144.532 264.499 143.202 265.74 144.775C265.566 144.266 265.219 143.857 265.886 143.923C265.859 143.782 265.864 143.566 265.874 143.44C265.911 143.456 265.911 143.456 265.911 143.456L265.837 143.424C265.832 143.335 265.832 143.335 265.801 143.409C265.575 143.225 265.38 142.969 265.275 142.706C265.252 141.435 266.222 141.196 266.357 140.47C266.814 140.621 266.395 141.095 266.747 141.593L266.987 140.521C267.377 141.644 268.517 142.129 267.857 143.066L268.634 142.875C269.29 143.372 269.994 143.454 270.245 142.865C270.665 143 270.814 141.324 270.732 142.333L271.743 141.285L271.833 141.584C273.092 141.38 273.733 138.957 275.714 140.627C276.028 140.195 276.358 139.727 277.119 139.877L277.536 140.837C277.97 140.326 279.394 141.367 279.293 140.28C280.625 142.761 281.969 140.115 283.019 140.301L282.654 139.015C283.31 138.902 283.797 138.37 284.431 137.596L284.041 136.473C284.438 135.337 285.993 136.783 287.042 136.359C287.106 136.821 286.781 136.77 286.518 136.571C288.532 138.777 288.649 133.912 290.352 135.42C290.519 134.925 290.755 134.982 291.039 135.234C291.024 135.271 290.987 135.255 291.008 135.307C291.045 135.323 291.097 135.302 291.149 135.281C291.339 135.448 291.528 135.616 291.733 135.747C291.538 135.49 291.349 135.322 291.218 135.223C291.427 135.138 291.716 134.869 291.962 134.496L292.462 135.666C292.478 135.629 292.515 135.644 292.53 135.608C292.982 135.974 292.634 134.956 292.186 134.069C292.296 133.812 292.369 133.538 292.384 133.197C293.233 135.08 293.044 132.26 294.045 134.295C293.959 133.171 295.454 133.025 294.999 130.83C295.104 131.092 295.22 131.229 295.063 131.292C295.483 131.428 295.94 131.579 296.075 130.853L296.812 132.385L296.976 130.062C297.723 130.859 298.112 131.373 297.978 132.707C298.598 130.536 298.742 131.728 299.169 129.604L299.428 130.628C299.795 130.48 299.955 128.982 300.413 129.742C300.723 130.136 301.164 130.323 301.647 130.312C301.899 130.332 302.13 130.3 302.413 130.246C302.644 130.214 302.733 130.209 302.927 130.161C303.016 130.155 303.069 130.134 303.158 130.128C303.533 131.288 303.219 132.025 301.898 132.68L301.808 132.381C299.289 135.441 297.296 135.941 293.79 138.667L294.903 139.315C294.133 139.901 293.713 139.765 293.162 139.835C293.405 140.896 293.935 140.469 294.48 140.005C294.988 139.525 295.517 139.098 295.923 140.184C294.626 139.763 293.39 140.932 292.127 141.961C290.885 143.041 289.638 144.033 288.356 143.269C287.287 144.25 289.638 144.033 288.553 145.05L287.744 144.705L288.077 145.76C287.248 146.278 286.24 145.892 285.783 145.436C286.008 145.315 286.16 144.857 286.29 144.652C284.758 144.782 283.96 147.27 283.388 147.287C283.388 147.287 283.739 147.176 284.069 147.012C284.416 146.811 284.767 146.7 284.767 146.7C282.201 149.87 277.676 152.032 275.646 155.779L276.219 156.066C274.481 158.719 273.89 156.945 271.522 159.243L271.548 159.08C271.366 159.916 270.821 160.684 270.025 161.128C270.301 160.071 267.988 160.913 268.432 159.667C266.453 162.478 267.674 161.345 267.107 164.409L266.162 163.876C266.053 165.048 266.238 165.431 264.943 166.533C265.629 165.128 263.252 165.813 263.937 164.103C259.87 164.068 260.717 168.605 257.739 166.727C257.786 169.88 261.055 166.487 260.61 167.428C261.708 167.809 260.541 169.835 259.471 170.206C258.464 170.734 256.146 168.224 253.776 169.608C254.038 169.502 253.938 169.329 254.179 169.17C252.935 169.032 252.855 170.955 251.201 170.555C251.362 172.32 249.701 171.222 250.518 173.179L252.552 171.566C251.546 172.703 251.519 175.519 248.838 175.595C248.811 175.149 249.171 174.302 249.464 173.818C248.556 173.605 248.469 174.829 247.54 174.564C246.76 172.623 250.061 172.723 250.666 170.589C249.6 170.135 248.823 173.284 248.447 170.905C248.83 173.983 245.924 171.832 245.273 174.686L244.825 173.495C244.647 173.811 244.391 174.615 243.904 174.843L244.021 172.935C243.316 174.897 240.914 173.092 239.935 174.371C242.652 173.092 241.202 175.476 242.777 175.755C240.08 178.826 239.409 173.669 235.929 175.927C236.353 175.543 238.174 175.753 237.583 176.632C236.764 176.718 235.599 176.701 234.896 176.314C232.526 177.697 235.816 177.315 235.046 178.51C233.57 177.489 234.041 179.647 233.15 180.617L232.65 179.446C229.455 179.913 232.906 182.209 229.889 182.36L230.337 180.289L229.142 181.259L228.893 179.804C227.788 181.378 227.211 181.306 225.611 181.495C226.263 182.208 226.265 183.731 224.938 184.297C223.789 183.938 225.02 182.983 223.211 183.866C223.336 182.962 223.465 181.843 224.657 182.611C224.578 182.186 224.782 181.707 224.702 181.282C223.458 180.839 222.258 182.025 221.576 182.3C221.86 182.247 222.18 182.209 222.4 182.303C222.4 182.303 221.903 182.961 221.353 183.64C220.84 184.335 220.306 184.978 220.306 184.978C219.697 184.675 219.937 184.212 220.141 183.733C219.659 184.05 219.466 184.707 218.648 185.098C218.53 184.048 218.13 183.051 219.099 182.202L216.888 184.131C216.562 183.775 215.16 183.396 215.364 182.917C213.763 182.801 212.467 185.946 210.326 185.774C210.268 186.011 210.159 186.268 209.797 186.506C207.94 186.89 206.007 186.023 204.226 187.962L202.523 186.454C200.945 187.304 204.783 188.286 202.13 189.723C200.28 190.805 201.01 188.376 200.186 188.068C199.432 189.226 198.14 191.547 195.965 190.534C196.51 190.07 197.02 190.2 197.575 189.914L195.942 189.262C197.23 187.157 198.537 187.453 196.966 186.349C197.252 188.124 195.957 188.616 194.614 188.914C193.292 189.265 191.933 189.6 192.204 191.412L191.133 190.868C191.4 190.852 191.405 190.636 191.673 190.62C189.55 189.281 190.822 193.433 188.366 193.388C187.5 193.28 186.849 192.872 187.336 192.34L185.674 193.59C185.228 193.618 185.165 193.155 185.479 193.028C185.233 193.097 184.776 193.251 184.336 193.368C183.649 193.554 182.977 193.703 182.977 193.703L182.972 193.614C182.669 194.224 181.867 195.188 181.501 195.641C180.723 195.223 181.815 195.209 181.557 194.795L180.1 195.871C179.332 195.022 180.522 193.962 181.598 193.985C179.64 190.629 180.445 195.061 177.047 193.352L178.441 192.728C177.252 190.83 176.23 191.7 174.465 190.644C174.897 191.263 178.107 193.412 176.561 194.494C176.046 194.275 175.416 194.224 174.573 195.083C174.423 193.801 173.59 194.229 172.493 194.459L172.391 192.762C171.248 193.406 171.422 194.22 170.773 195.031C169.424 194.935 169.044 193.686 168.638 192.599C166.481 192.464 170.263 194.596 167.803 195.071C165.981 194.556 164.791 195.311 162.678 196.499C161.413 196.004 162.865 195.448 162.371 194.977L161.329 196.403C161.077 196.383 161.124 195.968 161.166 195.768C160.269 196.344 161.163 197.507 159.69 198.011C159.336 199.861 156.589 195.298 154.782 197.4C154.324 196.944 155.006 196.364 154.842 195.729C152.314 196.871 152.702 196.471 150.596 198.358L148.846 197.265C150.103 198.496 148.426 200.087 146.901 201.221C147.353 201.892 147.727 202.443 147.974 202.679C147.974 202.679 147.36 202.896 146.762 203.076C146.164 203.257 145.551 203.474 145.551 203.474C145.283 203.186 145.534 202.596 145.942 201.944C145.753 202.081 145.617 202.197 145.481 202.313C144.65 201.611 145.131 200.685 145.775 199.785C146.065 200.126 146.338 200.503 146.575 200.865C147.213 199.875 147.773 198.765 147.677 197.767C147.509 197.957 147.231 198.1 146.896 198.174C147.058 197.895 147.152 197.674 147.104 197.48C147.057 197.286 146.774 197.644 146.386 198.044L145.947 196.117L145.797 196.88L142.866 195.501C140.607 197.236 138.497 199.948 134.929 200.473C135.924 199.157 135.35 198.26 135.573 196.615C136.327 198.415 138.296 196.035 140.044 196.518C139.152 196.269 139.392 195.501 139.664 195.269L136.397 196.618C136.621 195.278 135.834 195.595 135.077 194.925C135.402 197.63 132.534 196.409 131.176 197.048C131.211 196.15 131.625 195.282 133.152 195.671C131.695 193.485 130.512 198.506 129.071 196.587C129.449 196.617 129.638 196.785 129.863 196.359C128.846 197.013 126.782 196.047 127.421 195.362L127.799 195.393C125.342 194.738 120.214 194.033 119.357 196.148C119.393 195.859 120.239 193.565 120.464 193.139C120.464 193.139 118.987 194.772 117.473 196.39C115.922 197.991 114.372 199.593 114.372 199.593C115.193 197.767 114.722 192.956 117.015 192.367C116.489 191.969 115.832 191.472 114.458 191.843C114.784 192.2 114.815 194.779 114.227 194.833C113.184 192.388 113.411 193.486 112.022 191.241C112.522 191.802 111.094 194.543 110.159 194.189C110.421 193.778 110.841 191.26 111.277 191.054L108.153 193.291C108.866 192.942 108.92 190.877 108.63 189.927C108.704 190.568 106.624 189.334 105.947 189.394L106.621 190.463C104.147 189.236 102.785 193.658 100.164 192.673C100.673 192.194 102.126 189.289 100.934 188.52C99.8812 189.769 95.9064 194.514 93.0729 194.743L92.9243 193.766C92.9243 193.766 92.3734 193.836 91.8382 193.869C91.2873 193.939 90.752 193.972 90.752 193.972C92.7119 192.327 97.5182 188.893 99.7727 187.678C99.031 186.666 99.8338 186.616 98.3741 186.169C98.1363 185.198 99.5744 185.288 100.01 185.387L96.9005 183.714C96.4155 185.465 93.7897 184.391 93.3566 185.816C93.3566 185.816 94.427 185.75 95.4975 185.683C96.5468 185.565 97.6329 185.462 97.6329 185.462C97.2004 187.192 93.7565 189.466 91.44 188.175C91.0815 187.283 93.083 185.438 93.2447 184.855C92.6997 185.319 90.5686 185.02 90.5416 184.574L91.9105 184.113C90.8747 182.975 88.8742 185.43 88.0201 183.152C87.5157 182.807 87.3855 180.359 86.8676 181.269C86.8767 183.492 84.4728 189.341 83.231 190.421C83.0574 190.217 81.1107 187.344 80.9459 186.099C80.78 184.245 83.9324 183.369 83.7984 181.746C83.5735 182.172 82.8025 182.453 82.5403 182.558C82.1614 181.919 83.4146 181.321 82.1544 180.915C81.1704 182.41 79.78 179.556 80.9125 181.996C79.4901 181.869 79.8508 181.022 78.4171 180.411C78.3143 181.672 75.31 183.221 73.8822 183.004C74.1649 182.646 74.1952 181.963 74.2315 181.674C71.9041 180.204 71.0619 178.715 68.9551 177.339C68.9962 176.835 68.2491 175.733 69.1039 175.358C68.6422 175.422 68.0183 175.766 67.3144 175.379C67.1236 174.297 67.5123 174.506 67.9534 174.694C68.4103 174.845 68.9406 175.027 68.9806 173.914C68.3156 174.761 66.5143 173.994 65.2546 173.893C64.6118 175.403 67.1889 175.674 68.4799 175.701C67.8728 176.617 66.8245 177.345 65.5919 177.69C64.3592 178.035 62.9265 178.034 61.4723 177.676C59.3455 176.857 61.548 175.968 61.0652 175.98C58.0535 173.262 55.8925 176.91 54.1653 173.521C53.994 171.577 55.93 171.314 56.3533 170.32C57.9341 170.993 57.7324 172.691 58.7412 173.381L58.0092 171.939C58.7596 171.91 59.8782 172.343 60.1365 173.062C60.0668 172.206 58.7845 171.138 57.313 169.902C55.8571 168.63 54.2801 167.132 53.5114 165.673C52.7767 165.665 51.7214 165.39 51.6754 166.11L52.495 166.633C52.403 168.072 50.0022 166.572 50.613 167.789C49.0906 167.488 47.1433 167.268 46.2113 165.479L47.1115 164.079C46.792 164.422 47.3137 165.644 48.0484 165.653C46.9515 165.577 47.5647 162.097 45.4302 162.928C45.4302 162.928 45.4573 163.375 45.4632 163.769ZM301.893 163.084L302.281 162.988C302.544 163.492 302.245 163.277 301.893 163.084ZM324.769 121.192C325.058 121.228 325.913 121.157 324.891 122.027C323.156 122.941 324.073 122.113 324.769 121.192ZM269.068 142.059C269.068 142.059 269.083 142.023 269.099 141.986C269.64 142.347 269.414 142.163 269.068 142.059ZM312.07 133.88C311.666 134.012 311.367 134.103 311.105 134.209C310.968 134.02 310.779 133.852 310.611 133.737L310.664 133.716C311.01 133.82 311.393 133.94 312.07 133.88ZM311.759 126.657L311.9 126.326C314.429 123.444 312.927 125.545 313.687 125.086L313.436 125.37C313.075 126.217 313.332 126.022 313.62 125.753C313.892 125.521 314.27 125.247 313.715 126.142C313.647 126.2 313.547 126.331 313.448 126.463L315.302 124.556C317.262 122.606 316.581 123.491 315.633 124.696C314.686 125.902 313.444 127.288 314.068 126.944L315.126 125.785C315.624 125.432 314.702 126.475 313.434 127.719C312.573 127.395 311.513 127.335 310.479 127.112C310.547 127.055 310.631 126.96 310.699 126.902C311.161 126.837 311.03 127.043 311.759 126.657ZM309.308 126.701C309.271 126.685 309.234 126.67 309.198 126.654C309.297 126.522 309.397 126.391 309.512 126.222C309.433 126.406 309.371 126.554 309.308 126.701ZM311.423 120.511C311.129 120.69 310.935 120.738 310.808 120.423C311.185 119.844 311.374 120.012 311.423 120.511ZM303.263 130.086C303.51 130.017 303.777 130.001 304.013 130.058C303.977 130.347 303.999 130.704 304.057 131.077C303.38 131.137 303.673 130.348 303.263 130.086ZM259.139 178.329L258.614 178.236C259.248 177.462 259.201 177.877 259.139 178.329ZM178.076 193.791C177.79 195.278 177.358 194.66 176.586 194.331C176.943 194.004 177.655 193.046 178.076 193.791ZM145.149 198.909C144.724 198.99 144.289 198.891 143.821 198.561C144.119 198.166 144.582 198.407 145.149 198.909ZM109.454 199.413C109.554 199.281 109.601 199.171 109.716 199.002C109.664 199.328 109.801 199.517 109.454 199.413ZM52.9499 174.743C53.424 175.771 53.2764 175.404 52.8607 174.749C52.8975 174.764 52.9342 174.78 52.9499 174.743Z" fill="white"/>
<path d="M147.597 197.037C147.718 197.263 147.75 197.494 147.729 197.746C147.949 197.536 147.954 197.32 147.597 197.037Z" fill="white"/>
<path d="M210.304 185.722L210.357 185.7C210.388 185.627 210.383 185.537 210.361 185.484L210.304 185.722Z" fill="white"/>
<path d="M83.3291 180.807C83.6183 181.147 83.708 181.446 83.7086 181.751C83.8708 181.472 83.8178 181.189 83.3291 180.807Z" fill="white"/>
<path d="M42.6335 166.436C42.4502 166.662 42.3356 167.135 41.9783 166.853L43.1865 167.585C42.6767 167.15 42.7076 166.772 42.6335 166.436Z" fill="white"/>
<path d="M40.789 152.818C40.5527 152.761 40.5365 152.493 40.3002 152.436L39.8391 152.805C40.344 153.455 41.0371 153.663 40.789 152.818Z" fill="white"/>
<path d="M43.4752 161.4C42.1436 162.181 43.2254 162.599 44.2547 163.037C44.9932 162.22 44.1477 161.86 43.3806 161.316C43.3963 161.279 43.4541 161.347 43.4752 161.4Z" fill="white"/>
<path d="M42.6126 160.468C42.0936 160.769 42.7234 160.819 43.1699 161.096C42.9807 160.929 42.7704 160.709 42.6126 160.468Z" fill="white"/>
<path d="M49.1873 171.749C49.05 171.256 48.0552 172.572 48.1698 172.099C46.8328 172.791 51.493 172.861 49.1873 171.749Z" fill="white"/>
<path d="M46.3853 160.073L45.6105 161.178L46.754 160.839L46.3853 160.073Z" fill="white"/>
<path d="M50.6197 165.834L49.8618 164.555C49.7309 164.76 49.4947 164.703 49.2741 164.609C49.8682 165.253 50.3683 166.119 50.6197 165.834Z" fill="white"/>
<path d="M48.3019 163.934C48.4911 164.102 48.9063 164.452 49.2739 164.609C48.948 164.253 48.6431 163.949 48.3019 163.934Z" fill="white"/>
<path d="M48.6982 162.493L47.9771 161.229L48.062 161.744L48.6982 162.493Z" fill="white"/>
<path d="M63.5251 175.506C63.0267 175.555 62.4596 175.357 62.4185 175.861L63.9046 176.45C64.282 176.176 64.1079 175.667 63.5251 175.506Z" fill="white"/>
<path d="M61.7629 170.058L60.8184 170.134C60.9714 170.59 60.8092 170.869 60.7313 171.358L61.7629 170.058Z" fill="white"/>
<path d="M64.596 172.482C64.9733 172.208 67.152 172.7 65.5129 171.654C65.1356 171.929 63.6862 171.355 64.596 172.482Z" fill="white"/>
<path d="M83.1283 185.767L82.0253 188.255L83.4959 185.923L83.1283 185.767Z" fill="white"/>
<path d="M102.902 188.793C104.119 188.485 104.545 189.014 104.594 187.165C103.128 186.019 103.715 188.618 102.406 187.408C101.809 187.893 103.452 188.419 102.902 188.793Z" fill="white"/>
<path d="M102.902 188.793C102.708 188.841 102.498 188.925 102.235 189.031C102.571 188.957 102.782 188.872 102.902 188.793Z" fill="white"/>
<path d="M174.016 192.106L173.033 191.252L172.986 191.667C173.229 192.118 173.481 192.139 174.016 192.106Z" fill="white"/>
<path d="M188.466 190.299L188.198 190.315L188.982 191.737L188.466 190.299Z" fill="white"/>
<path d="M200.68 185.582C200.166 185.667 199.621 186.131 199.106 186.217C200.129 185.652 201.292 187.408 200.68 185.582Z" fill="white"/>
<path d="M237.861 152.826C238.181 152.484 237.628 151.335 237.718 151.634C237.445 151.561 237.829 152.595 237.861 152.826Z" fill="white"/>
<path d="M240.966 148.493L241.231 147.258L240.902 148.031L240.966 148.493Z" fill="white"/>
<path d="M244.563 146.98C243.689 145.26 243.316 147.667 242.465 147.218L242.228 146.856L242.357 148.389C243.132 147.893 243.844 146.63 244.563 146.98Z" fill="white"/>
<path d="M247.14 150.209C247.198 150.277 247.235 150.293 247.293 150.361C247.345 150.34 247.487 150.313 247.665 150.302C247.339 149.641 247.926 149.587 247.14 150.209Z" fill="white"/>
<path d="M247.277 150.397C246.909 150.546 247.72 150.891 247.277 150.397V150.397Z" fill="white"/>
<path d="M249.262 150.938C249.681 150.464 249.46 150.066 248.939 149.453L248.61 150.226C248.831 150.624 249.329 150.576 249.262 150.938Z" fill="white"/>
<path d="M249.047 147.975L248.853 148.328C248.953 148.502 249.027 148.533 249.047 147.975Z" fill="white"/>
<path d="M248.45 149.07L248.853 148.329C248.695 148.087 248.515 147.489 248.654 148.592C248.532 148.061 248.565 148.597 248.45 149.07Z" fill="white"/>
<path d="M248.062 148.862C247.668 148.563 247.211 148.412 247.54 147.639C246.659 148.177 247.181 149.4 248.062 148.862Z" fill="white"/>
<path d="M244.213 145.048L243.651 144.635L243.516 145.36C243.584 144.997 244.372 145.594 244.213 145.048Z" fill="white"/>
<path d="M252.376 149.437C252.281 149.049 251.887 148.446 251.734 147.989L251.499 148.541C251.761 148.74 252.181 148.876 252.376 149.437Z" fill="white"/>
<path d="M251.734 147.989L252.095 147.142C251.58 147.228 251.565 147.569 251.734 147.989Z" fill="white"/>
<path d="M248.529 145.928L248.022 147.627L248.686 145.865L248.529 145.928Z" fill="white"/>
<path d="M254.527 148.874L254.46 149.846L254.621 148.348L254.527 148.874Z" fill="white"/>
<path d="M255.906 148.287C255.902 149.112 256.585 149.446 256.492 149.972C256.853 149.734 256.988 149.009 257.108 148.32C256.883 148.746 256.526 148.768 255.906 148.287Z" fill="white"/>
<path d="M257.092 148.357C257.186 148.136 257.312 147.842 257.337 147.374C257.243 147.595 257.176 147.958 257.092 148.357Z" fill="white"/>
<path d="M253.322 147.013C253.27 147.034 253.18 147.039 253.091 147.045C253.212 147.27 253.481 147.863 253.849 148.02L253.322 147.013Z" fill="white"/>
<path d="M253.284 146.996C253.552 146.98 253.731 146.969 253.784 146.948C253.731 146.969 253.605 146.959 253.284 146.996Z" fill="white"/>
<path d="M253.075 147.082C253.033 146.976 252.996 146.961 253.023 147.103L253.075 147.082Z" fill="white"/>
<path d="M250.001 144.206C249.997 145.031 250.522 145.429 250.283 146.501C250.455 145.792 250.941 144.955 250.001 144.206Z" fill="white"/>
<path d="M252.354 145.818L251.687 145.751C251.777 146.051 252.014 146.412 251.946 146.775L252.354 145.818Z" fill="white"/>
<path d="M252.542 145.375L252.354 145.817L252.606 145.838L252.542 145.375Z" fill="white"/>
<path d="M256.04 146.647C256.149 146.085 256.411 145.979 256.705 145.799C256.306 145.716 255.928 145.686 255.592 145.761C255.65 146.133 255.673 146.795 256.04 146.647Z" fill="white"/>
<path d="M254.665 146.714L254.696 146.641C254.654 146.536 254.617 146.52 254.665 146.714Z" fill="white"/>
<path d="M259.837 144.871C259.815 144.818 259.757 144.75 259.736 144.698L259.784 144.892L259.837 144.871Z" fill="white"/>
<path d="M255.492 145.588C255.161 145.447 255.109 145.773 255.042 146.135C255.194 145.982 255.382 145.845 255.592 145.761C255.566 145.619 255.56 145.53 255.492 145.588Z" fill="white"/>
<path d="M258.06 146.594C257.871 146.426 257.645 146.243 257.44 146.112C257.692 146.437 258.113 146.878 258.06 146.594Z" fill="white"/>
<path d="M254.89 146.897C254.89 146.897 254.875 146.934 254.859 146.971C255.033 147.176 254.991 147.071 254.89 146.897Z" fill="white"/>
<path d="M254.891 146.898C254.969 146.713 255.021 146.388 255.041 146.135C254.905 146.251 254.79 146.42 254.712 146.604C254.754 146.709 254.833 146.829 254.891 146.898Z" fill="white"/>
<path d="M259.736 144.698C259.62 144.257 259.488 143.853 259.907 143.074C259.554 142.576 258.205 142.175 258.444 141.103C259.062 140.365 259.206 141.253 259.715 141.688C259.036 140.528 260.179 139.579 259.462 137.795L258.975 138.632C258.886 138.333 258.979 137.807 258.716 137.608C258.975 138.632 258.578 139.768 257.664 138.856C257.345 139.808 258.684 142.988 259.736 144.698Z" fill="white"/>
<path d="M258.587 144.948L258.382 145.122C258.692 145.211 259.018 145.567 259.597 146.248C259.863 145.622 259.842 145.265 259.746 144.877L258.524 145.096L258.587 144.948Z" fill="white"/>
<path d="M257.292 145.441C257.169 144.301 257.614 143.664 256.904 142.578C256.222 142.854 256.664 143.651 256.413 144.24C257.504 143.617 256.241 144.95 257.25 145.336C257.103 145.578 256.878 145.699 256.705 145.8C256.941 145.857 257.198 145.966 257.44 146.113C257.403 146.097 257.419 146.06 257.382 146.044C257.303 145.924 257.245 145.856 257.319 145.887L257.334 145.85C257.329 145.761 257.318 145.582 257.292 145.441C257.712 145.576 257.434 145.719 257.371 145.866L257.382 146.044L258.346 145.106C258.11 145.049 257.795 145.176 257.292 145.441Z" fill="white"/>
<path d="M249.917 141.647C249.975 141.716 249.981 141.805 250.023 141.91C250.049 141.747 250.044 141.658 249.917 141.647Z" fill="white"/>
<path d="M250.355 143.27L250.381 143.107C250.822 143.295 251.569 144.091 251.79 144.49C251.4 143.672 251.111 143.026 250.542 142.219C250.501 142.419 250.58 142.844 250.239 142.829C249.918 142.562 250.065 142.32 249.954 141.968C249.955 142.273 249.704 142.862 250.355 143.27Z" fill="white"/>
<path d="M251.806 144.453C251.864 144.521 251.869 144.61 251.927 144.678C251.943 144.642 251.901 144.536 251.806 144.453Z" fill="white"/>
<path d="M253.882 143.554L254.673 142.716L253.89 141.904L254.085 142.466C253.508 142.394 253.819 143.092 253.882 143.554Z" fill="white"/>
<path d="M260.136 145.39L260.317 146.598L260.387 144.801L260.136 145.39Z" fill="white"/>
<path d="M261.736 145.202L261.306 144.888L261.564 145.912L261.736 145.202Z" fill="white"/>
<path d="M323.144 128.982L323.345 129.329C323.297 129.134 323.255 129.029 323.144 128.982Z" fill="white"/>
<path d="M324.142 125.622L323.564 125.855C323.832 125.839 324.079 125.77 324.142 125.622Z" fill="white"/>
<path d="M291.822 135.741C292.516 136.559 293.384 137.886 292.994 136.762L292.535 135.697C292.321 135.997 292.048 135.925 291.822 135.741Z" fill="white"/>
<path d="M311.012 122.903C311.059 122.792 311.085 122.629 311.132 122.519C310.786 123.024 310.456 123.493 310.179 123.94C310.409 123.603 310.729 123.261 311.012 122.903Z" fill="white"/>
<path d="M314.57 116.893C314.57 116.893 314.633 117.05 314.681 117.244C314.744 117.402 314.792 117.596 314.792 117.596C314.865 117.323 314.796 117.076 314.57 116.893Z" fill="white"/>
<path d="M320.071 144.769L321.095 145.422C321.226 144.912 320.601 144.951 320.071 144.769Z" fill="white"/>
<path d="M273.93 140.737C274.397 141.067 274.744 141.171 275.011 141.154C274.37 140.62 273.781 139.76 273.93 140.737Z" fill="white"/>
<path d="M274.99 141.102C275.442 141.468 275.883 141.656 275.992 140.789C275.898 140.705 275.824 140.674 275.729 140.59C275.567 140.869 275.331 141.117 274.99 141.102Z" fill="white"/>
<path d="M307.95 185.064C307.897 185.085 307.845 185.106 307.792 185.127C307.94 185.19 307.955 185.153 307.95 185.064Z" fill="white"/>
<path d="M293.544 193.806C293.517 193.664 293.559 193.464 293.585 193.301C293.464 193.38 293.454 193.506 293.544 193.806Z" fill="white"/>
<path d="M266.457 143.906C266.216 144.064 266.447 144.032 266.457 143.906V143.906Z" fill="white"/>
<path d="M263.836 139.352C263.889 139.636 263.9 139.815 263.89 139.942C263.916 139.778 263.905 139.599 263.836 139.352Z" fill="white"/>
<path d="M276.625 133.185C276.488 132.996 276.525 133.012 276.625 133.185V133.185Z" fill="white"/>
<path d="M265.931 143.508C266.062 143.607 266.21 143.67 266.357 143.733C266.262 143.649 266.152 143.602 265.931 143.508Z" fill="white"/>
<path d="M266.106 144.017C265.995 143.97 265.906 143.975 265.854 143.997C265.864 144.175 265.943 144.296 266.106 144.017Z" fill="white"/>
<path d="M266.803 143.705C266.646 143.769 266.52 143.758 266.356 143.733C266.414 143.801 266.488 143.832 266.472 143.869C266.525 143.848 266.63 143.805 266.803 143.705Z" fill="white"/>
<path d="M310.991 162.521C310.954 162.505 310.938 162.542 310.886 162.563C311.249 162.936 311.207 162.831 310.991 162.521Z" fill="white"/>
<path d="M295.304 122.26C295.304 122.26 295.288 122.297 295.272 122.334L295.309 122.35L295.304 122.26Z" fill="white"/>
<path d="M295.989 121.16C296.007 122.647 295.698 122.559 295.309 122.35L296.553 125.446L295.989 121.16Z" fill="white"/>
<path d="M323.227 127.669L323.201 127.832C323.232 127.758 323.211 127.706 323.227 127.669Z" fill="white"/>
<path d="M314.146 117.582C314.089 117.819 313.911 118.134 313.785 118.429C314.052 118.108 314.215 117.829 314.146 117.582Z" fill="white"/>
<path d="M319.866 144.638L319.85 144.675C319.923 144.706 319.997 144.737 320.071 144.769L319.866 144.638Z" fill="white"/>
<path d="M278.74 127.3C278.997 127.409 279.134 127.598 279.292 127.839C279.217 127.503 279.06 127.262 278.74 127.3Z" fill="white"/>
<path d="M264.36 144.753C264.082 144.895 263.924 144.654 263.735 144.487C263.824 144.786 264.061 145.148 263.904 145.211L264.36 144.753Z" fill="white"/>
<path d="M256.714 139.148C256.688 139.311 256.557 139.212 256.515 139.412L256.711 139.973C257.041 139.809 257.134 139.284 256.714 139.148Z" fill="white"/>
<path d="M262.165 141.339C261.817 140.321 261.577 140.784 261.236 141.074L261.289 141.053C261.611 142.538 261.878 141.913 262.165 141.339Z" fill="white"/>
<path d="M261.116 141.152C260.995 141.231 260.874 141.311 260.748 141.3C260.891 141.884 260.948 141.342 261.116 141.152Z" fill="white"/>
<path d="M267.07 142.775C266.807 142.576 267.35 144.156 267.092 143.741C267.284 145.128 267.923 141.79 267.07 142.775Z" fill="white"/>
<path d="M261.294 138.184L260.837 138.033L261.358 139.255L261.294 138.184Z" fill="white"/>
<path d="M264.274 138.018L263.513 137.867C263.597 138.077 263.535 138.225 263.472 138.372C263.897 138.292 264.406 138.422 264.274 138.018Z" fill="white"/>
<path d="M263.026 138.704C263.131 138.662 263.357 138.54 263.488 138.334C263.294 138.382 263.084 138.467 263.026 138.704Z" fill="white"/>
<path d="M262.347 137.545L261.586 137.395L261.886 137.609L262.347 137.545Z" fill="white"/>
<path d="M271.832 135.668C271.768 135.206 271.506 135.007 271.27 135.255C271.202 135.617 270.967 135.865 271.203 136.227L271.832 135.668Z" fill="white"/>
<path d="M268.687 134.285L268.233 132.7L268.061 133.41C268.376 133.587 268.429 133.871 268.687 134.285Z" fill="white"/>
<path d="M270.005 132.411C269.942 131.949 270.627 130.849 269.773 131.224C269.852 131.649 269.26 132.224 270.005 132.411Z" fill="white"/>
<path d="M281.114 131.312L280.956 131.375L281.722 133.963L281.114 131.312Z" fill="white"/>
<path d="M287.838 123.475C287.824 124.121 288.637 123.945 288.58 124.487C288.873 123.698 289.267 123.996 288.54 122.338C287.552 122.005 288.821 124.024 287.838 123.475Z" fill="white"/>
<path d="M288.617 124.501C288.554 124.649 288.544 124.775 288.465 124.96C288.544 124.775 288.607 124.628 288.617 124.501Z" fill="white"/>
<path d="M290.887 195.763L291.883 195.665L291.563 195.398L290.887 195.763Z" fill="white"/>
<path d="M293.25 196.943L291.565 196.617L292.988 197.354C292.925 197.197 292.82 196.934 293.25 196.943Z" fill="white"/>
<path d="M329.514 115.557C328.854 116.189 328.781 116.462 328.561 116.978L330.064 115.182L329.514 115.557Z" fill="white"/>
<path d="M324.751 129.493L324.861 129.235L322.984 130.176L324.751 129.493Z" fill="white"/>
<path d="M323.819 139.536C323.866 139.425 323.914 139.314 323.887 139.172C323.877 139.299 323.814 139.446 323.819 139.536Z" fill="white"/>
<path d="M323.664 140.818C323.82 140.45 323.757 139.988 323.803 139.572C323.458 140.383 321.978 140.492 323.664 140.818Z" fill="white"/>
</g>
<defs>
<clipPath id="clip0_301_15435">
<rect width="293.319" height="174.214" fill="white" transform="translate(269.871 275.203) rotate(-156.935)"/>
</clipPath>
</defs>
</svg>
