<svg width="155" height="225" viewBox="0 0 155 225" fill="none" xmlns="http://www.w3.org/2000/svg">
<g clip-path="url(#clip0_301_16345)">
<path fill-rule="evenodd" clip-rule="evenodd" d="M142.46 123.894C141.008 115.321 139.372 106.77 138.392 98.1221C137.717 92.1724 136.673 86.2677 136.1 80.3077C135.349 72.4298 134.7 64.5416 133.521 56.7028C132.286 48.3936 131.111 40.0903 129.856 31.7791C129.736 30.9384 129.391 30.1162 129.02 29.3522C127.668 26.6123 125.367 24.8921 122.623 23.7758C120.131 22.7649 117.594 21.8103 115.047 20.9558C112.754 20.1867 110.393 19.7142 107.966 19.9027C106.927 19.9835 106.377 19.6064 105.871 18.7687C104.754 16.9413 103.387 15.3929 101.253 14.6595C100.275 14.3216 99.3813 13.7291 98.398 13.229C98.5108 12.6941 98.6358 12.2412 98.7227 11.7644C98.8296 11.2895 98.9566 10.8166 98.9633 10.332C99.0274 8.84192 98.0611 7.95931 96.601 8.20138C95.9621 8.32117 95.3257 8.62319 94.7294 8.92911C93.0925 9.74035 91.4917 10.5955 89.8929 11.4307C89.6822 11.3091 89.4656 11.2476 89.3571 11.1157C88.9428 10.5901 88.5306 10.0445 88.1384 9.50082C87.0522 7.97972 86.729 7.76629 85.0539 8.55359C83.9732 9.055 83.0779 9.93842 81.9679 10.7403C81.144 8.39548 79.199 7.17496 77.2022 6.07073C74.6695 4.65149 73.2319 5.07773 71.5593 7.50307C71.1122 8.14703 70.689 8.75288 71.0701 9.61898C71.3039 10.127 71.5344 10.8774 71.3131 11.2804C71.0419 11.7798 70.3131 11.9919 69.7911 12.3657C69.3331 12.7053 68.8913 13.0869 68.4495 13.4686C67.5879 14.2137 66.8315 15.3331 65.8304 15.64C64.8694 15.9509 63.6457 15.4274 62.5291 15.2581C62.4288 15.2483 62.3448 15.2806 62.2446 15.2708C59.0434 14.8986 55.9091 15.5034 52.7806 16.0482C50.7837 16.3998 48.7688 16.7294 46.881 17.4151C43.7581 18.5265 41.4371 20.545 40.4604 23.9278C39.7318 26.4248 38.8047 28.8823 37.9196 31.3236C36.5949 34.9556 35.1338 38.5338 33.8893 42.1736C31.9332 47.9278 30.1134 53.7357 28.2355 59.5178C26.4152 65.1235 24.8516 70.7947 22.935 76.3505C19.537 86.1095 16.6464 96.0594 12.6407 105.618C11.3745 108.649 10.4593 111.815 9.48593 114.955C9.31304 115.485 9.48588 116.411 9.87755 116.753C10.5103 117.32 11.5169 117.58 12.2221 116.779C13.0871 115.791 13.7911 116.042 14.6766 116.714C17.1625 118.614 20.1056 119.143 23.1057 119.294C24.7571 119.374 25.492 118.475 25.6577 116.772C25.7708 115.61 25.3365 115.083 23.7804 114.648C23.1307 114.464 22.4414 114.477 21.7916 114.293C20.412 113.916 18.9903 113.555 17.6683 113.002C16.91 112.686 16.3329 111.962 15.7002 111.395C15.6258 111.327 15.6771 111.009 15.7508 110.874C15.8447 110.742 16.0846 110.563 16.201 110.615C17.0272 110.857 17.8276 111.157 18.6499 111.439C20.4931 112.043 22.3777 112.429 24.31 111.909C25.1009 111.683 26.3475 110.308 26.2554 109.592C26.1143 108.547 25.1801 108.375 24.3299 108.171C23.7765 108.036 23.1991 107.939 22.6237 107.823C21.3927 107.582 20.1539 107.421 18.9527 107.081C17.5549 106.682 17.3896 106.302 17.9431 104.981C20.9435 97.8526 23.4745 90.5569 25.7328 83.1538C28.1737 75.1215 30.6747 67.095 33.1958 59.0705C34.8983 53.6353 36.659 48.226 38.4798 42.8225C40.4658 36.9701 42.6082 31.1733 44.5359 25.295C45.1958 23.2968 46.0894 21.8066 48.3087 21.4565C48.9056 21.3528 49.4237 21.019 49.9804 20.9115C54.9655 20.0015 59.9486 19.1115 64.9537 18.2035C65.3768 19.0535 64.9561 19.8415 64.6738 20.6633C63.0376 25.4174 61.4033 30.1516 59.8071 34.9096C58.7814 37.9641 59.4693 39.6284 62.3006 41.097C63.1475 41.5433 64.094 41.7972 64.9926 42.1273C65.813 42.4296 66.6152 42.7098 67.4615 42.954C68.2658 43.2142 68.4957 43.7623 68.3214 44.5137C68.2145 44.9886 68.1076 45.4634 67.9625 45.9144C66.8714 49.2253 67.5029 52.2996 68.772 55.4763C70.0371 58.693 70.8178 62.1053 71.8088 65.4369C72.5144 67.7499 73.2219 70.043 73.9495 72.338C74.6449 74.549 75.5064 76.7154 76.0355 78.9709C76.7775 82.157 77.3114 85.4037 77.8471 88.6303C77.947 89.2669 77.8167 89.9821 77.6541 90.6133C76.039 97.2297 73.2343 103.387 70.1206 109.392C67.9797 113.511 65.8608 117.611 64.2234 121.961C62.0688 127.676 59.3324 133.132 55.8874 138.175C52.8916 142.554 49.9701 147.001 46.3337 150.893C45.95 151.301 45.5968 151.812 45.3657 152.316C44.0697 155.445 42.8719 158.604 43.7652 162.108C43.9575 162.834 43.8575 163.654 43.8436 164.421C43.7627 168.578 43.6637 172.714 43.5628 176.869C43.4473 181.589 43.5705 186.353 43.1124 191.06C42.4456 197.91 42.4042 204.781 42.1623 211.632C42.0842 213.889 43.163 214.864 45.4694 214.866C46.0966 214.866 46.7463 215.051 47.3559 215.231C48.082 215.464 48.7626 215.955 49.4822 216.045C52.5372 216.463 55.5999 216.802 58.6627 217.14C59.3241 217.205 60.0315 217.213 60.6724 217.073C62.2425 216.741 63.3224 215.208 62.9113 213.611C62.5711 212.324 62.7683 211.13 62.9894 209.898C63.2007 208.766 63.5142 207.624 63.6654 206.486C65.0872 195.827 66.5472 185.192 67.8468 174.542C69.0626 164.752 70.098 154.945 71.1955 145.124C71.315 144.105 71.6813 143.251 72.5836 142.712C73.2259 142.349 74.0443 142.672 74.1584 143.37C74.2564 144.027 74.2502 144.714 74.2441 145.401C74.1936 148.206 74.123 151.01 74.0745 153.796C73.9632 159.305 73.8739 164.796 73.7225 170.301C73.5851 175.039 73.3274 179.766 73.212 184.486C73.0667 190.76 72.9596 197.059 72.9346 203.344C72.9127 207.103 73.0092 210.894 73.2098 214.654C73.3513 217.357 75.1274 219.066 77.7873 219.386C78.3666 219.463 78.9615 219.379 79.4949 219.512C82.7113 220.351 86.0066 219.964 89.2712 220.099C90.5217 220.14 91.199 219.417 90.8252 218.269C90.4797 217.245 90.8188 216.671 91.2395 215.883C91.5385 215.305 91.6488 214.588 91.7532 213.931C92.7058 208.302 93.6764 202.694 94.7272 197.094C96.8807 185.779 98.4167 174.362 100.211 162.992C100.407 161.818 100.331 160.718 99.8334 159.598C99.2527 158.288 98.8202 156.912 98.3656 155.553C97.9111 154.195 97.6066 152.75 97.0479 151.421C95.6483 148.131 93.9726 144.975 92.6771 141.654C89.6361 133.816 87.3038 125.764 85.56 117.487C83.8324 109.251 82.2671 101.01 81.2806 92.6445C81.0037 90.2923 80.9976 88.0675 82.0235 85.8421C82.6352 84.5469 82.8997 83.0763 83.3569 81.7054C84.7601 77.4745 86.1633 73.2436 88.5937 69.4766C91.2617 65.3486 94.064 61.2943 96.7119 57.1643C98.1905 54.8616 99.2036 52.3519 98.773 49.4994C98.6751 48.8429 98.7233 48.1398 98.6673 47.4671C98.5805 46.4881 99.0262 46.0665 99.9858 45.9779C101.334 45.8462 102.662 45.7127 104.002 45.4589C108.244 44.699 109.438 43.0358 108.833 38.8522C108.123 33.8898 107.414 28.9074 106.723 23.947C106.639 23.3524 106.822 22.7232 106.884 22.0822C109.901 23.306 112.768 24.414 115.586 25.5982C118.152 26.6769 120.69 27.8338 123.238 28.8906C124.755 29.5235 125.367 30.7154 125.56 32.2708C125.84 34.583 126.185 36.8609 126.506 39.177C127.22 44.5239 127.952 49.8927 128.644 55.2576C129.391 61.093 130.198 66.9342 130.843 72.7798C131.421 78.073 131.612 83.3891 132.293 88.652C133.493 97.9485 134.404 107.298 136.404 116.47C136.741 117.999 136.618 118.23 135.091 118.324C133.26 118.429 131.428 118.331 129.604 118.356C128.753 118.374 127.785 118.341 127.353 119.249C127.022 119.945 128.07 121.644 128.959 122.074C129.306 122.25 129.672 122.447 130.034 122.462C131.564 122.55 133.075 122.616 134.614 122.604C135.383 122.598 136.132 122.388 136.907 122.322C137.049 122.316 137.336 122.485 137.347 122.587C137.382 122.854 137.385 123.238 137.229 123.385C135.641 124.726 133.676 124.758 131.76 124.895C130.701 124.973 129.644 124.81 128.582 124.909C126.928 125.071 126.413 125.79 126.575 127.443C126.725 128.813 127.386 129.504 129.152 129.655C131.938 129.926 134.746 129.977 137.361 128.675C138.318 128.202 139.089 127.974 139.741 129.169C140.255 130.129 141.316 130.03 142.045 129.616C142.495 129.357 142.801 128.497 142.798 127.91C142.824 126.598 142.694 125.231 142.46 123.894ZM78.1369 68.3983C78.1427 68.3382 78.1486 68.2781 78.1544 68.218C76.4693 63.0799 75.2685 57.7463 72.9787 52.792C71.7612 50.1259 71.5194 47.4131 72.7783 44.6644C73.0612 44.0449 73.2658 43.3976 73.4704 42.7502C74.1654 40.3915 73.7618 39.3412 71.5308 38.3557C69.8636 37.6071 68.1168 37.0529 66.4418 36.3844C64.6504 35.6641 64.5677 35.4741 65.1357 33.5883C66.2438 29.8948 67.4301 26.2291 68.44 22.5059C68.8863 20.8306 69.0158 19.0841 69.2837 17.3713C69.3998 16.594 69.4978 15.7948 70.5557 15.736C71.6737 15.683 72.5166 16.1694 72.6318 17.2725C72.8294 19.1924 72.9849 21.1284 72.92 23.043C72.8852 24.2326 73.0858 25.0811 74.0696 25.7835C74.5996 26.1586 75.074 26.69 75.5102 27.1975C76.6036 28.4362 77.2263 29.7303 77.3134 31.5383C77.5471 36.4138 77.8408 41.2951 77.8301 46.1873C77.8254 51.8484 78.2436 57.5304 78.3993 63.2071C78.4399 64.8691 78.258 66.5296 78.1764 68.1999C78.1906 68.2619 78.2067 68.304 78.241 68.368L78.1369 68.3983ZM84.0459 52.7975C83.5948 54.9374 83.0836 57.0713 82.5905 59.2273C82.372 59.1858 82.1534 59.1443 81.933 59.1229C81.8531 58.4883 81.7131 57.8478 81.6934 57.2191C81.531 50.5712 81.3888 43.9253 81.2264 37.2774C81.1972 36.122 81.2663 34.9964 80.1759 34.1422C79.7241 33.7949 79.5215 32.9664 79.4617 32.3337C79.3042 30.4178 79.2889 28.4954 79.2116 26.5872C79.2013 26.4851 79.2512 26.3889 79.2389 26.3068C78.0195 22.2048 81.3226 20.2819 83.3677 17.7715C83.7811 17.2658 84.4044 17.3062 84.9364 17.6613C85.2596 17.8747 85.6047 18.0701 85.838 18.3759C87.5472 20.5642 89.2564 22.7525 90.8815 24.9731C91.0766 25.2549 90.9502 25.9301 90.7528 26.2951C88.6373 30.1534 87.7992 34.3988 86.9992 38.6682C86.1163 43.3744 85.051 48.083 84.0459 52.7975ZM102.588 39.8215C100.781 40.0905 98.9766 40.3394 97.1821 40.6905C94.3343 41.2626 93.6497 42.2676 93.9961 45.1523C94.0618 45.7248 94.1255 46.3174 94.2753 46.8577C95.0104 49.6994 94.2378 52.2325 92.5788 54.5177C90.1453 57.9002 88.2316 61.5557 86.5467 65.3548C85.8994 66.8083 85.3264 68.3296 84.023 69.4564C84.3788 67.6713 84.6144 65.8744 85.0685 64.119C87.0475 56.4664 88.8481 48.7761 89.8347 40.9257C89.9562 39.8861 90.0834 38.7864 89.8783 37.7757C89.4984 35.8583 90.0908 34.1366 90.585 32.3851C90.9303 31.1247 91.324 29.9902 93.0257 30.1761C94.0078 30.2717 94.5869 29.5192 95.0638 28.7771C96.664 26.2638 98.3968 23.8443 99.1502 20.8847C99.4041 19.9388 99.7563 19.0228 100.854 18.7656C102.139 18.4459 102.952 19.0305 102.946 20.3442C102.912 22.5651 102.676 24.7865 102.804 27.0029C102.968 30.0923 103.4 33.147 103.727 36.2321C103.803 36.9067 103.899 37.5833 103.914 38.2521C103.949 39.1451 103.513 39.6689 102.588 39.8215Z" fill="white"/>
<path fill-rule="evenodd" clip-rule="evenodd" d="M35.7506 152.978C36.9119 147.49 37.973 141.993 39.1143 136.503C39.2667 135.769 39.4604 134.818 39.9824 134.444C41.4384 133.413 41.6487 131.876 41.9151 130.386C43.4265 121.717 44.958 113.05 46.289 104.364C47.3897 97.2123 48.2538 89.9971 49.1961 82.8097C50.2351 75.0453 51.2119 67.2951 52.2909 59.5346C52.8139 55.8246 52.7233 51.974 54.379 48.4754C54.5045 48.2247 54.5157 47.9023 54.5229 47.6199C54.531 46.913 53.6319 46.3807 53.0639 46.8107C52.5601 47.2065 52.1227 47.7503 51.7856 48.3038C50.1419 51.0555 49.2946 54.1476 48.2728 57.162C46.4423 62.6656 44.379 68.0656 42.4521 73.5194C38.4473 84.938 34.4446 96.3366 30.3837 107.709C29.606 109.878 28.4955 111.933 27.6578 114.096C26.9871 115.79 26.4107 117.554 25.9566 119.309C25.5401 120.886 25.8864 121.486 27.0016 121.878C28.3715 122.355 28.8339 122.177 29.6449 120.497C30.2766 119.204 30.6394 117.763 31.2711 116.47C34.1545 110.543 36.0631 104.238 38.2225 98.059C40.209 92.4088 41.9407 86.6732 43.8309 80.9732C44.4014 79.2696 45.0481 77.6139 45.6567 75.9342C45.2328 80.7052 44.5943 85.3948 43.8957 90.0784C43.0433 95.7177 42.1529 101.333 41.2805 106.97C40.2368 113.743 39.6904 120.605 37.7506 127.231C37.1094 129.453 36.763 131.765 36.2401 134.019C34.7667 140.427 33.3333 146.839 31.7416 153.215C30.703 157.441 29.3897 161.579 28.2529 165.775C28.0029 166.681 27.9074 167.663 27.8959 168.612C27.8831 169.783 28.8321 170.219 29.7727 170.533C30.575 170.814 30.9742 170.246 31.4135 169.682C31.761 169.231 32.1686 168.785 32.6427 168.487C36.1573 166.262 38.4647 162.928 40.7721 159.593C41.7621 158.153 42.2382 156.38 42.3741 154.775C38.9145 156.642 36.8755 159.922 33.6114 162.9C33.7963 161.624 33.8625 160.943 34.007 160.29C34.5876 157.859 35.2483 155.436 35.7506 152.978Z" fill="white"/>
<path fill-rule="evenodd" clip-rule="evenodd" d="M125.648 127.192C125.126 124.452 124.459 121.738 123.999 118.984C123.155 113.928 122.432 108.884 121.671 103.815C120.887 98.5627 120.104 93.3102 119.36 88.0615C118.576 82.6067 117.81 77.1739 117.047 71.701C116.518 67.7875 116.112 63.8456 115.48 59.9424C115.126 57.7645 114.465 55.6176 113.842 53.4945C113.662 52.8502 113.077 52.2069 112.314 52.5573C111.932 52.7425 111.619 53.4602 111.613 53.9448C111.601 54.894 111.933 55.8564 111.901 56.8037C111.793 59.9879 111.646 63.1683 111.438 66.3428C110.83 75.5038 110.141 84.657 109.593 93.8239C109.135 101.443 108.897 109.083 108.459 116.703C108.072 123.177 107.869 129.627 108.758 136.083C109.159 139.034 109.495 142.018 109.59 145C109.81 151.674 109.85 158.33 109.969 165.014C109.993 166.634 109.997 168.252 109.999 170.315C107.251 167.156 106.155 163.248 102.621 160.679C102.668 161.655 102.655 162.199 102.745 162.734C103.355 166.231 104.937 169.316 106.818 172.229C108.12 174.236 109.596 176.119 111.052 177.999C111.285 178.305 111.871 178.524 112.278 178.503C113.782 178.427 114.701 177.303 114.698 175.463C114.688 174.107 114.534 172.778 114.424 171.412C114.049 166.119 113.594 160.817 113.321 155.513C113.033 149.541 112.928 143.545 112.721 137.561C112.64 134.863 112.358 132.147 112.439 129.445C112.624 122.973 112.929 116.512 113.234 110.051C113.519 103.588 113.864 97.131 114.191 90.6521C114.301 88.2768 114.371 85.8977 114.48 83.5224C114.643 83.518 114.807 83.4935 114.969 83.4891C115.208 84.9884 115.508 86.4735 115.687 87.9669C116.735 96.1164 117.661 104.274 118.833 112.395C119.607 117.748 120.709 123.052 121.67 128.362C121.775 128.938 121.923 129.499 122.135 130.025C122.585 131.221 123.069 131.45 124.361 131.273C125.468 131.118 125.783 130.38 125.794 129.431C125.802 128.724 125.796 127.955 125.648 127.192Z" fill="white"/>
<path fill-rule="evenodd" clip-rule="evenodd" d="M104.729 132.577C104.666 131.56 104.714 130.857 104.574 130.216C104.333 129.161 104.829 127.39 103.424 127.273C101.798 127.135 102.116 129.067 101.67 130.116C101.274 131.068 101.317 132.083 101.97 132.854C102.35 133.316 103.117 133.754 103.63 133.683C104.098 133.648 104.477 132.876 104.729 132.577Z" fill="white"/>
<path fill-rule="evenodd" clip-rule="evenodd" d="M105.249 141.16C105.354 140.908 105.422 140.631 105.606 139.982C105.423 139.58 105.165 138.908 104.774 138.344C104.686 138.214 104.009 138.31 103.789 138.491C103.107 139.051 103.231 139.852 103.464 140.582C103.539 140.852 103.698 141.09 103.857 141.328C104.233 141.83 105.01 141.744 105.249 141.16Z" fill="white"/>
<path fill-rule="evenodd" clip-rule="evenodd" d="M84.7444 26.9043C84.3532 26.7652 83.6186 27.0374 83.2809 27.3887C82.3357 28.3684 81.5754 29.5278 82.0603 30.9904C82.2986 31.6606 82.7217 32.5106 83.2654 32.7455C84.118 33.1317 84.5744 32.1854 84.9212 31.5317C85.2701 30.8579 85.4444 30.1065 85.6373 29.5794C85.6137 28.9907 85.6947 28.574 85.5656 28.2379C85.3919 27.7357 85.1355 27.0435 84.7444 26.9043Z" fill="white"/>
</g>
<defs>
<clipPath id="clip0_301_16345">
<rect width="134" height="213" fill="white" transform="translate(20.6328) rotate(5.55886)"/>
</clipPath>
</defs>
</svg>
