<svg width="127" height="131" viewBox="0 0 127 131" fill="none" xmlns="http://www.w3.org/2000/svg">
<g clip-path="url(#clip0_426_6186)">
<path fill-rule="evenodd" clip-rule="evenodd" d="M110.779 86.9591C109.681 83.5174 108.101 80.2931 105.725 77.5398C104.302 75.8733 102.746 74.3276 101.263 72.7215C100.804 72.2264 100.37 71.7313 99.9359 71.2241C99.6344 70.8618 99.5741 70.4875 99.8394 70.0648C100.201 69.4852 100.418 68.8814 100.322 68.1568C100.225 67.3839 100.274 66.599 100.225 65.8141C100.213 65.5122 100.177 65.1861 100.057 64.9325C98.8987 62.3966 97.174 60.5007 94.4603 59.5225C92.0723 58.6651 89.5878 58.5564 87.1153 58.3149C84.9564 58.1096 82.9543 59.0395 80.9161 59.6312C79.7823 59.9572 79.2879 60.8267 79.1431 61.9377C79.0828 62.3603 79.1069 62.7951 79.0105 63.2057C78.9863 63.3023 78.5521 63.423 78.4677 63.3506C78.2024 63.1091 78.0094 62.7951 77.8044 62.4932C76.743 60.9354 75.7058 59.3534 74.6445 57.8077C72.2805 54.3419 69.4221 51.3471 65.7315 49.3304C63.5606 48.1469 61.1846 47.2896 58.8448 46.4563C56.3724 45.5748 53.7673 45.1521 51.1621 45.0193C48.364 44.8744 45.578 45.1521 42.804 45.6351C42.0321 45.768 41.2361 45.7921 40.4401 45.8525C39.9094 45.8887 39.4994 45.7197 39.3064 45.1521C39.0169 44.2826 38.3656 43.7875 37.5455 43.4252C37.1113 43.232 36.7736 42.8577 36.3756 42.5799C36.0862 42.3746 35.7846 42.109 35.459 42.0244C32.9504 41.3844 30.4779 41.5172 28.2105 42.8577C25.6053 44.3913 23.6636 46.6858 21.8424 49.0285C21.0825 50.0066 20.6725 51.2867 20.2021 52.4701C19.1166 55.2355 18.9116 55.7306 21.5288 57.9043C20.5639 59.4863 19.5508 60.9354 18.7428 62.4932C15.3175 69.147 13.9546 76.2598 14.425 83.7106C14.5577 85.7636 14.9316 87.7923 15.6552 89.7728C17.1025 93.6975 19.2734 97.2116 21.565 100.665C23.1329 103.044 25.2315 104.904 27.6557 106.365C29.3683 107.404 31.1412 108.358 32.9262 109.275C33.8428 109.746 34.8198 110.109 35.7967 110.435C39.222 111.582 42.804 111.92 46.3499 112.415C46.7599 112.476 47.1941 112.464 47.6163 112.403C48.6776 112.234 48.7258 112.198 49.0877 113.067C49.8596 114.879 50.8727 116.545 52.139 118.031C54.8889 121.303 57.9403 124.225 61.5947 126.508C64.3687 128.235 67.3959 129.418 70.4956 130.179C73.4746 130.903 76.6104 131.193 79.722 130.903C80.6266 130.819 81.5312 130.698 82.4478 130.614C85.6198 130.324 88.6832 129.636 91.5899 128.307C92.808 127.752 94.0141 127.172 95.196 126.544C99.3932 124.31 103.048 121.436 105.653 117.378C106.473 116.098 107.305 114.83 108.065 113.526C108.608 112.584 109.126 111.606 109.5 110.592C110.284 108.418 111.056 106.232 111.659 103.998C112.576 100.689 112.901 97.3082 112.551 93.8665C112.322 91.4513 111.502 89.2173 110.779 86.9591ZM95.9197 70.4633C94.5689 71.3811 93.3025 72.4196 91.9999 73.4099C91.6622 73.6634 91.3004 74.0136 90.8783 73.6876C90.432 73.3495 90.0823 72.8423 90.2994 72.2747C90.5044 71.7192 90.818 71.1758 91.216 70.7531C91.9999 69.9199 92.8562 69.1591 93.7125 68.3863C93.8814 68.2413 94.1226 68.1568 94.3518 68.1085C95.2201 67.9032 96.1006 67.7342 97.0051 67.5409C97.3911 68.7968 97.0293 69.7146 95.9197 70.4633ZM88.7918 60.4161C88.8641 60.3437 89.033 60.3437 89.1415 60.3557C91.7225 60.5248 95.6181 61.7807 96.9569 65.2707C95.4493 65.4759 94.0744 65.6933 92.6994 65.8382C92.3617 65.8745 91.9879 65.7537 91.6743 65.6088C90.7938 65.2224 89.9134 64.8118 89.0691 64.3529C88.7917 64.208 88.4782 63.8819 88.4299 63.5921C88.2973 62.7589 88.2611 61.9015 88.2611 61.0561C88.2731 60.8388 88.5867 60.6093 88.7918 60.4161ZM88.0681 66.1522C88.5505 66.4179 89.0209 66.6835 89.4792 66.9734C90.0581 67.3356 90.6129 67.6255 91.3486 67.4081C91.5295 67.3598 91.8673 67.6255 92.024 67.8428C92.0964 67.9394 91.9517 68.3017 91.8069 68.4346C90.83 69.3282 89.8169 70.1976 88.84 71.0913C88.5264 71.369 88.2611 71.8641 87.7907 71.6105C87.1877 71.2845 86.3555 71.1275 86.1987 70.2701C86.0781 69.618 86.0178 68.9538 85.9092 68.1206C85.9816 67.8066 86.066 67.3356 86.2107 66.8768C86.5364 65.7416 87.0068 65.5605 88.0681 66.1522ZM82.8217 61.1407C83.8709 60.8146 84.9202 60.5007 85.9695 60.1988C86.1143 60.1625 86.4278 60.235 86.452 60.3195C86.5123 60.5127 86.5002 60.7784 86.4037 60.9475C86.259 61.2011 85.9213 61.3701 85.8248 61.6358C85.5474 62.3966 85.1373 62.8796 84.2328 62.7468C84.0639 62.7226 83.883 62.8192 83.7021 62.8796C83.1232 63.0849 82.7975 63.5438 83.1473 63.9906C83.9674 65.0412 83.4971 65.9107 83.0388 66.8647C82.8699 67.2149 82.7975 67.6255 82.689 68.0119C82.5563 67.9877 82.4357 67.9757 82.303 67.9636C82.2066 67.1304 82.0739 66.2971 82.0257 65.4518C81.9774 64.6789 82.0015 63.9423 81.7121 63.1574C81.2658 61.9498 81.6035 61.5271 82.8217 61.1407ZM79.7582 90.2075C80.2527 89.1086 80.5422 87.901 80.8075 86.7176C81.4829 83.7469 82.0498 80.74 81.9653 77.6847C81.9292 75.982 81.688 74.2914 81.5432 72.5887C81.5191 72.2989 81.495 72.009 81.4347 71.369C83.2559 72.3955 84.7152 73.2408 86.1987 74.0499C87.3203 74.6537 88.4541 75.2092 89.7446 75.3782C91.1195 75.5594 92.0361 76.5134 92.7959 77.5398C94.3397 79.6531 95.9317 81.7423 97.2222 84.0125C99.152 87.3938 100.756 90.9683 101.118 94.9292C101.576 100.086 100.032 104.638 96.788 108.635C95.0995 110.725 93.2663 112.669 91.0592 114.215C90.3235 114.734 89.5154 115.205 88.6832 115.543C84.1242 117.342 79.4567 117.572 74.7168 116.352C72.1358 115.676 69.4704 115.169 67.1547 113.744C65.5506 112.765 64.0069 111.679 62.4872 110.556C61.5947 109.891 61.655 109.565 62.6199 109.191C65.0923 108.225 67.1065 106.522 69.3136 105.133C70.1096 104.626 70.7247 103.817 71.4001 103.117C73.4625 101.04 75.2113 98.7211 76.7551 96.2213C77.9612 94.3133 78.8416 92.2483 79.7582 90.2075ZM40.7175 48.8836C41.1155 48.7507 41.5014 48.5575 41.8995 48.4126C42.3578 48.2436 42.804 48.0141 43.2864 47.9658C48.4123 47.4828 53.4899 47.4345 58.3503 49.5357C60.7504 50.5742 63.1867 51.5041 65.5748 52.5667C66.3346 52.9049 67.0462 53.4241 67.6733 53.9917C71.7137 57.6628 74.6083 62.0947 76.3571 67.2753C77.6838 71.2241 78.4918 75.5594 78.5039 80.2811C78.528 81.6094 78.4315 83.7227 77.4426 85.7032C77.3581 85.8602 77.2978 86.0534 77.2978 86.2225C77.2134 88.8671 75.7661 90.9321 74.4515 93.0454C73.4263 94.6998 72.2444 96.2455 71.1348 97.8516C69.6754 99.977 67.9145 101.825 66.0331 103.564C64.3325 105.133 62.258 105.991 60.0992 106.655C59.8218 106.74 59.279 106.667 59.1464 106.462C58.5071 105.52 57.9162 104.518 57.3855 103.503C57.096 102.96 57.2287 102.513 57.8559 102.151C59.0137 101.499 60.1112 100.726 61.2449 100.001C66.214 96.8372 69.398 92.2484 71.4242 86.8383C71.9067 85.5583 72.0152 84.0971 72.0514 82.7083C72.1117 80.0999 71.9911 77.4795 71.9549 74.859C71.9428 74.1344 71.9428 73.3978 71.9187 72.6732C71.9187 72.4317 71.9308 72.166 71.8584 71.9487C70.6765 68.5312 69.8805 64.9688 67.601 61.9739C64.9235 58.4477 61.5344 56.1292 57.3855 54.68C53.116 53.1947 48.7862 52.5547 44.2995 52.929C43.4553 53.0015 42.599 53.0498 41.7427 53.0619C41.2723 53.0739 40.7296 53.0981 40.3677 52.8807C40.1868 52.772 40.416 52.0958 40.3557 51.6973C40.3074 51.3592 40.1265 51.0452 39.9697 50.7312C39.439 49.6927 39.62 49.2338 40.7175 48.8836ZM56.698 97.9361C56.6015 97.9724 56.4689 97.9241 56.3483 97.912C55.4075 90.8234 61.8359 78.0591 68.9397 74.9314C69.386 77.9866 69.6151 81.0298 69.0362 84.0005C68.602 86.2345 67.5889 88.3599 66.7688 90.5094C66.3105 91.7291 65.4059 92.671 64.4169 93.4801C62.0651 95.3881 59.4358 96.7527 56.698 97.9361ZM41.2843 55.3684C42.1407 55.3684 42.9849 55.3684 43.8412 55.3684C47.3389 55.3201 50.7762 55.8031 54.117 56.7692C57.0478 57.6145 59.8579 58.7738 62.1977 60.8388C63.6692 62.1309 64.827 63.6646 65.9366 65.2586C66.214 65.6692 66.2019 66.0435 65.6471 66.285C64.9235 66.599 64.236 66.9854 63.5003 67.3115C60.7504 68.5191 58.2659 70.1493 55.8779 71.9366C55.0578 72.5525 54.31 73.3012 53.6708 74.1103C52.1511 76.0062 50.7038 77.9746 49.2324 79.9188C47.966 81.5853 47.0856 83.445 46.4343 85.4375C46.2051 86.1258 45.988 86.8262 45.7348 87.5146C44.589 90.6543 44.0825 93.8665 44.4202 97.2116C44.4443 97.4531 44.4563 97.6946 44.4563 97.9482C44.4322 100.025 44.6975 99.8924 42.3216 100.134C41.9718 100.17 41.5979 100.049 41.2482 99.977C38.2692 99.2886 35.7485 97.8274 33.5413 95.7021C31.4307 93.6612 29.706 91.3185 28.0899 88.8912C27.6195 88.1908 27.3059 87.3817 26.9441 86.6089C24.7731 81.9959 23.8565 77.1292 24.339 72.0453C24.4596 70.7169 24.7008 69.3644 25.1712 68.1327C25.9069 66.2126 26.8476 64.365 27.7642 62.5173C28.2949 61.4547 29.1391 60.7542 30.297 60.2954C32.1543 59.5587 33.9393 58.641 35.7364 57.7594C36.2188 57.53 36.6892 57.2281 37.0751 56.8537C38.2812 55.6582 39.7285 55.3684 41.2843 55.3684ZM28.8256 52.4218C29.1994 52.2286 29.6578 52.1803 30.0196 51.975C30.7794 51.5282 31.7805 51.3954 32.1543 50.3931C32.2026 50.2602 32.6006 50.1395 32.7694 50.1999C32.9383 50.2482 33.1313 50.5259 33.1433 50.7312C33.276 52.1199 33.3725 53.5087 33.481 54.9095C33.6016 55.7669 32.1785 56.7813 31.3945 56.3224C30.309 55.6944 29.0788 55.2476 28.4034 54.0279C27.9813 53.2309 28.0175 52.8203 28.8256 52.4218ZM34.5062 48.3764C34.8439 47.6035 35.2057 46.8427 35.6037 45.9854C36.8822 46.4684 37.3405 47.3016 37.2802 48.5575C37.2078 50.1878 37.2681 51.8301 37.2681 53.4724C37.2681 53.8951 37.3043 54.4023 36.7977 54.5472C36.255 54.7163 35.652 54.668 35.3263 54.1487C35.0127 53.6536 34.7595 53.0619 34.663 52.4943C34.47 51.3592 34.4097 50.2119 34.3132 49.0647C34.3132 48.8474 34.4097 48.5938 34.5062 48.3764ZM25.2797 47.7605C27.4386 45.5265 29.9231 44.0653 33.1795 44.4155C33.3001 44.4275 33.4207 44.4759 33.5293 44.5242C33.5775 44.5483 33.6137 44.6087 33.7222 44.7415C33.0227 46.0095 32.2991 47.3258 31.5634 48.6179C31.4789 48.7628 31.3101 48.8957 31.1412 48.956C30.0437 49.3304 29.0306 49.8617 28.0778 50.538C27.9089 50.6587 27.4868 50.5621 27.2577 50.4414C26.6787 50.1153 26.136 49.7289 25.5933 49.3304C24.7973 48.7387 24.6887 48.3643 25.2797 47.7605ZM21.9389 53.6053C22.2645 52.6271 22.6022 51.649 22.9881 50.695C23.0846 50.4414 23.362 50.2723 23.555 50.0549C23.7239 50.2723 23.9289 50.4655 24.0374 50.7071C24.158 50.9727 24.1098 51.335 24.2666 51.5644C24.6646 52.132 24.7611 52.603 24.2063 53.1343C24.0013 53.3275 23.9289 53.6657 23.8324 53.9555C23.6877 54.3781 23.9168 54.825 24.2545 54.8129C25.7742 54.8129 26.2446 55.948 26.8476 56.9865C26.9923 57.2281 27.2215 57.4213 27.4145 57.6386C27.33 57.7473 27.2577 57.856 27.1732 57.9647C26.4617 57.5662 25.738 57.1677 25.0264 56.7571C24.2666 56.3103 23.6515 55.6944 22.7228 55.4408C21.6976 55.1752 21.6012 54.6438 21.9389 53.6053ZM34.8921 107.162C32.1182 106.099 29.3562 104.844 27.0526 102.936C24.7611 101.04 22.8314 98.7452 21.372 96.0885C19.7317 93.0816 18.3689 89.9781 17.8864 86.5485C16.9819 80.1241 17.1749 73.7842 19.4543 67.6375C20.3227 65.3069 21.2996 63.0124 22.6504 60.8871C23.8927 58.9429 24.0977 58.8583 26.4496 59.9089C25.3762 62.2517 24.3269 64.4374 23.362 66.6594C22.4334 68.7968 21.8786 71.043 21.7941 73.3857C21.6615 76.8636 21.7821 80.3052 22.6022 83.7348C24.544 91.8257 29.308 97.6946 36.5445 101.547C38.643 102.67 41.0673 103.334 43.588 103.08C44.8061 102.96 44.8905 103.093 45.2885 104.204C45.7951 105.641 46.3619 107.041 46.8805 108.466C47.0012 108.792 47.0373 109.131 47.1579 109.626C42.9005 109.046 38.7636 108.647 34.8921 107.162ZM108.981 99.3973C108.222 104.373 106.557 109.058 104.037 113.418C103.156 114.939 102.288 116.485 101.214 117.874C99.755 119.745 97.9941 121.376 96.0282 122.704C91.8793 125.493 87.2118 126.725 82.2548 126.943C80.5542 127.015 78.8537 127.112 77.1531 127.196C74.2103 127.341 71.3157 126.955 68.4573 126.303C66.9497 125.964 65.6592 125.131 64.3566 124.346C62.7525 123.368 61.1364 122.39 59.4841 121.484C58.1815 120.76 57.1201 119.782 56.2035 118.622C55.8296 118.139 55.5161 117.584 55.0578 117.209C53.3693 115.821 52.2114 114.033 51.2466 112.125C49.8596 109.42 48.3399 106.776 47.8816 103.684C47.2906 99.6871 47.1579 95.7021 47.6283 91.6566C47.954 88.8912 48.6655 86.2828 49.7872 83.771C51.0898 80.8245 53.2366 78.4455 55.5764 76.3202C57.4579 74.6054 59.5202 73.0717 61.6309 71.6468C63.1867 70.5962 64.9235 69.8112 66.612 68.978C67.3115 68.6398 67.601 68.8089 67.8784 69.4972C67.9748 69.7146 68.0472 69.9561 68.0834 70.1976C68.3126 71.7434 68.7588 71.8037 67.0824 72.8664C63.9345 74.871 61.1002 77.25 58.8087 80.2448C56.7221 82.9619 55.0336 85.9326 53.9723 89.1811C53.4175 90.8838 53.3089 92.7676 53.2125 94.579C53.0798 96.958 53.4537 99.3249 53.924 101.656C53.9964 102.018 54.0688 102.38 54.2135 102.706C55.8176 106.281 57.5664 109.771 60.4972 112.464C61.9686 113.816 63.6089 114.999 65.225 116.195C65.6954 116.545 66.2984 116.775 66.8773 116.956C71.3036 118.296 75.7782 119.564 80.4216 119.733C87.2238 119.975 92.8683 117.39 97.4273 112.379C98.4886 111.208 99.562 110.036 100.479 108.756C104.362 103.298 105.351 97.3565 103.421 90.8958C101.89 85.7756 99.2967 81.2955 95.6423 77.4311C95.184 76.9481 94.7618 76.4168 94.3397 75.8975C94.2673 75.813 94.2553 75.6801 94.1829 75.4869C94.4121 75.3299 94.6412 75.1367 94.9066 75.0039C95.4011 74.7382 95.7267 74.4363 95.9197 73.8325C96.2694 72.7577 96.8001 72.8181 97.8253 73.3495C99.9118 74.4122 101.178 76.2719 102.662 77.9383C105.134 80.74 106.762 83.9763 107.727 87.5508C108.27 89.5433 108.68 91.5721 109.15 93.5888C109.597 95.533 109.271 97.4893 108.981 99.3973Z" fill="white"/>
<path fill-rule="evenodd" clip-rule="evenodd" d="M113.793 56.0325C114.891 55.5374 115.952 54.9578 117.074 54.5109C117.834 54.209 118.087 53.7019 118.075 52.9531C118.075 52.3373 117.786 52.0595 117.002 52.0716C115.361 52.3856 113.938 53.3396 112.756 54.7042C112.346 55.1751 112.274 55.8151 112.539 56.0687C112.949 56.4673 113.395 56.2016 113.793 56.0325Z" fill="white"/>
<path fill-rule="evenodd" clip-rule="evenodd" d="M7.50203 55.1389C5.60849 55.7789 3.72701 56.4672 1.86965 57.1797C1.18218 57.4454 0.928906 58.0854 0.796237 58.7737C0.627386 59.607 1.00127 60.0538 2.05056 60.0538C2.38826 59.9692 2.93099 59.8726 3.42549 59.6794C4.33004 59.3292 5.2346 58.979 6.10298 58.5443C6.91105 58.1458 7.70706 57.6869 8.41865 57.1556C9.27496 56.5155 9.41969 56.0566 9.11817 55.5132C8.72017 54.7887 8.05683 54.9457 7.50203 55.1389Z" fill="white"/>
<path fill-rule="evenodd" clip-rule="evenodd" d="M5.74114 52.2045C6.19945 51.9871 6.63364 51.5765 6.9231 51.1418C7.28492 50.6225 7.00752 49.9946 6.39242 49.8859C5.74114 49.7772 5.06574 49.7772 4.30591 49.7289C3.49783 49.8255 2.59328 49.9583 1.68872 50.0308C0.735917 50.1032 0.337911 50.695 0.108756 51.5161C-0.14452 52.3977 0.0484522 52.7962 0.953011 52.9049C2.60534 53.1222 4.23354 52.9049 5.74114 52.2045Z" fill="white"/>
<path fill-rule="evenodd" clip-rule="evenodd" d="M117.738 59.8485C116.531 59.7157 115.325 59.7277 114.155 60.1625C113.733 60.3195 113.516 60.6093 113.528 61.0803C113.552 61.5874 113.866 61.8048 114.288 61.8652C114.951 61.9618 115.627 61.9859 116.29 62.0463C116.29 62.0222 116.29 61.998 116.29 61.9739C116.833 61.9739 117.364 62.0101 117.894 61.9497C118.123 61.9256 118.437 61.7565 118.534 61.5633C118.847 61.0078 118.341 59.9089 117.738 59.8485Z" fill="white"/>
<path fill-rule="evenodd" clip-rule="evenodd" d="M117.472 66.7559C116.326 66.3332 115.18 65.9226 114.011 65.6087C113.407 65.4517 113.046 65.8985 113.239 66.4902C113.335 66.78 113.504 67.094 113.733 67.2631C114.758 68.048 115.976 68.4103 117.219 68.6639C117.713 68.7726 118.087 68.3499 118.087 67.9273C118.063 67.408 117.954 66.937 117.472 66.7559Z" fill="white"/>
<path fill-rule="evenodd" clip-rule="evenodd" d="M1.91771 43.8358C2.85846 44.2222 3.8595 44.4517 4.83642 44.7415C4.84848 44.7053 4.86054 44.657 4.87261 44.6207C5.05352 44.6207 5.25855 44.669 5.41534 44.6086C5.78922 44.4637 6.36814 44.3309 6.45257 44.0652C6.57317 43.6667 6.40432 43.1354 6.23547 42.7248C6.13899 42.4833 5.81335 42.278 5.54801 42.1693C4.65551 41.8191 3.75095 41.4447 2.82227 41.2032C1.90565 40.9617 1.6765 41.1549 1.3388 42.0485C0.976974 43.0146 1.0614 43.4856 1.91771 43.8358Z" fill="white"/>
<path fill-rule="evenodd" clip-rule="evenodd" d="M15.3534 24.6591C15.5704 24.8161 15.8599 24.9127 16.1252 24.9972C17.6811 25.4682 18.7786 26.4705 19.4902 27.8955C19.8641 28.6563 20.2138 29.4291 20.4912 30.2261C20.7686 31.0231 20.9375 31.8564 21.1908 32.6655C21.3476 33.1485 22.1195 33.6557 22.5295 33.4625C22.819 33.3296 23.0602 32.9191 23.1687 32.5809C23.3255 32.11 23.3858 31.5907 23.41 31.0835C23.5426 28.5717 24.8693 27.1226 27.3297 26.8328C28.4514 26.6999 29.2112 25.8184 29.175 24.5021C29.0182 24.3331 28.8011 23.9829 28.4996 23.8017C26.8955 22.8598 26.0151 21.3744 25.3156 19.7442C24.9296 18.8626 24.616 17.9569 24.3145 17.0392C24.1336 16.5078 23.8562 16.1335 23.2532 16.1214C22.6863 16.1093 22.2521 16.3508 22.035 16.8701C21.7938 17.4377 21.6008 18.0294 21.4199 18.6211C20.5877 21.2537 18.6942 22.6786 16.1011 23.3066C15.884 23.3549 15.6066 23.3187 15.4498 23.4394C15.2569 23.5964 15.088 23.8621 15.0398 24.1157C15.0157 24.2848 15.1966 24.5504 15.3534 24.6591ZM20.841 24.3331C21.4561 23.4032 22.1315 22.5217 22.7949 21.5918C23.3497 22.4371 23.8924 23.2583 24.4351 24.0795C24.7246 24.5263 24.6643 24.9127 24.2904 25.2871C23.7356 25.8426 23.2049 26.4222 22.5657 27.1105C21.9385 26.3497 21.3717 25.7218 20.8772 25.0576C20.7566 24.8885 20.7325 24.5021 20.841 24.3331Z" fill="white"/>
<path fill-rule="evenodd" clip-rule="evenodd" d="M23.205 6.7625C21.7577 7.78896 21.5406 11.1823 22.8311 12.4261C23.3256 12.8971 23.9166 12.8126 24.1458 12.1122C24.4352 11.2185 24.592 10.2766 24.7609 9.53997C24.6282 8.59805 24.592 7.86142 24.4111 7.16101C24.2543 6.58136 23.6633 6.43645 23.205 6.7625Z" fill="white"/>
<path fill-rule="evenodd" clip-rule="evenodd" d="M10.5173 23.2341C10.0348 23.1134 9.52827 23.053 9.03378 23.0771C8.15334 23.1375 7.06787 24.3934 7.06787 25.275C7.06787 25.8184 7.83976 26.2531 8.93729 26.3497C9.04584 26.3618 9.16645 26.3618 9.44384 26.3739C9.76949 26.2773 10.276 26.1927 10.7223 25.9875C11.3133 25.7339 11.9042 24.7074 11.7716 24.2002C11.6148 23.5843 11.0479 23.367 10.5173 23.2341Z" fill="white"/>
<path fill-rule="evenodd" clip-rule="evenodd" d="M35.6279 23.5723C34.8319 23.0168 33.1795 23.1255 32.4438 23.7897C31.9855 24.2002 31.5393 24.6954 31.684 25.3837C31.8408 26.1324 32.5162 26.2169 33.1192 26.3618C33.3363 26.4101 33.5655 26.4101 33.6499 26.4101C33.9514 26.386 34.1203 26.3739 34.2891 26.3618C35.2781 26.2773 36.1947 25.0818 35.9897 24.1036C35.9656 23.8983 35.7967 23.681 35.6279 23.5723Z" fill="white"/>
<path fill-rule="evenodd" clip-rule="evenodd" d="M85.6559 123.235C82.3874 123.513 79.1189 123.851 75.8263 123.73C72.8111 123.609 69.9286 122.957 67.1426 121.822C66.8652 121.714 66.5878 121.569 66.2983 121.532C65.9606 121.496 65.6591 121.714 65.7676 122.076C65.8882 122.462 66.0571 122.945 66.3586 123.151C67.2029 123.73 68.0833 124.298 69.024 124.696C71.9427 125.916 75.0303 126.109 78.1782 126.29C80.1561 126.001 82.1462 125.735 84.1121 125.409C84.7634 125.3 85.4146 125.071 86.0177 124.805C86.8137 124.455 87.2238 123.851 86.9825 123.477C86.6448 122.933 86.1262 123.199 85.6559 123.235Z" fill="white"/>
<path fill-rule="evenodd" clip-rule="evenodd" d="M93.423 121.46C93.2542 121.11 92.9526 120.844 92.5667 121.049C92.3496 121.17 92.2411 121.484 92.1084 121.665C92.1687 122.064 92.1928 122.366 92.2772 122.656C92.434 123.151 92.832 123.247 93.2783 123.139C93.7366 123.042 93.7848 122.68 93.7004 122.305C93.6522 122.016 93.5557 121.726 93.423 121.46Z" fill="white"/>
<path fill-rule="evenodd" clip-rule="evenodd" d="M96.2574 119.745C95.8836 119.649 95.6182 120.023 95.6303 120.892C95.7147 121.001 95.8956 121.4 96.1971 121.544C96.559 121.714 97.0052 121.255 96.9811 120.82C96.969 120.325 96.8243 119.878 96.2574 119.745Z" fill="white"/>
<path fill-rule="evenodd" clip-rule="evenodd" d="M107.751 36.1796C106.967 35.5637 106.002 35.0928 105.387 34.3441C104.47 33.2331 104.012 31.8443 103.928 30.3711C103.904 29.9605 103.904 29.5378 103.831 29.1273C103.723 28.5114 103.24 28.3544 102.806 28.8012C102.046 29.5741 101.455 30.4556 101.166 31.5183C100.792 32.8467 100.008 33.8852 98.8139 34.5494C97.9335 35.0324 97.0048 35.4671 96.0399 35.757C95.256 35.9985 94.8821 36.4694 94.5685 37.1578C94.1946 37.9669 94.3394 38.4016 95.4731 38.5586C95.7022 38.5827 95.9434 38.4861 96.1726 38.462C97.7284 38.2567 98.4762 38.6552 99.1999 40.0198C99.9356 41.4085 100.442 42.8456 100.358 44.4517C100.346 44.6811 100.358 44.9347 100.406 45.1641C100.502 45.623 100.828 45.937 101.286 45.8766C101.6 45.8404 101.986 45.6472 102.143 45.4057C102.36 45.0675 102.384 44.6207 102.492 44.2222C102.734 43.4252 102.951 42.6282 103.216 41.8312C103.795 40.0802 104.977 39.0658 106.846 38.8484C107.872 38.7276 108.402 38.0876 108.475 36.88C108.306 36.711 108.052 36.4091 107.751 36.1796ZM104.097 37.7495C103.349 38.5103 102.625 39.2831 101.817 40.1285C101.202 39.1262 100.587 38.1359 100.02 37.1215C99.9235 36.9283 99.9959 36.5177 100.141 36.3366C100.816 35.5275 101.564 34.7788 102.299 33.9818C102.915 34.9237 103.542 35.8536 104.145 36.7955C104.374 37.1336 104.41 37.4355 104.097 37.7495Z" fill="white"/>
<path fill-rule="evenodd" clip-rule="evenodd" d="M103.566 26.9778C105.001 26.9778 104.929 23.9588 104.784 23.0652C104.627 22.1112 103.071 22.1353 102.89 23.0652C102.722 23.8863 102.022 26.9778 103.566 26.9778Z" fill="white"/>
<path fill-rule="evenodd" clip-rule="evenodd" d="M91.1554 35.7812C90.7935 35.7812 90.4438 35.7812 90.094 35.8053C89.6478 35.6121 89.093 35.7812 88.8638 36.3125C88.4658 36.8559 88.7553 37.7978 89.4548 37.9428C89.9613 38.0514 90.4558 38.0635 90.9744 38.0635C91.5775 38.0635 92.277 38.0756 92.6871 37.5563C93.0127 37.1457 93.0127 36.711 92.6871 36.3004C92.3132 35.8295 91.7102 35.7812 91.1554 35.7812Z" fill="white"/>
<path fill-rule="evenodd" clip-rule="evenodd" d="M102.408 50.1516C102.408 50.1274 102.384 49.9825 102.384 49.9704C102.36 49.7289 102.36 49.5116 102.227 49.27C102.191 49.2097 102.167 49.0768 102.082 49.0044C102.13 49.0406 102.155 49.0647 102.167 49.0768C102.155 49.0527 102.106 49.0164 102.082 48.944C101.937 48.6421 101.527 48.7025 101.359 48.9319C101.322 48.9561 101.274 48.9681 101.238 49.0044C101.19 49.0527 101.033 49.1372 100.997 49.1855C100.804 49.3787 100.647 49.6082 100.526 49.898C100.358 50.3206 100.394 50.8399 100.406 51.2988C100.454 52.6392 102.432 52.6392 102.48 51.2988C102.492 51.0814 102.504 50.8641 102.48 50.6467C102.456 50.4776 102.432 50.3206 102.408 50.1516Z" fill="white"/>
<path fill-rule="evenodd" clip-rule="evenodd" d="M113.673 36.9525C113.166 36.9163 112.708 36.8801 112.201 36.9284C111.635 36.9767 111.261 37.1578 110.875 37.5805C110.658 37.8099 110.658 38.1601 110.875 38.3896C111.261 38.8001 111.635 38.9813 112.201 39.0417C112.708 39.09 113.166 39.0658 113.673 39.0175C115 38.9088 115 37.0612 113.673 36.9525Z" fill="white"/>
<path fill-rule="evenodd" clip-rule="evenodd" d="M48.0743 23.1496C47.3989 23.6327 46.9165 24.2365 46.3617 24.8403C45.8551 25.3958 45.0833 26.3377 45.1556 27.1226C45.24 28.0042 46.0602 28.5355 46.8803 28.1129C47.4592 27.823 47.8572 27.2313 48.2794 26.7603C48.8221 26.1686 49.2804 25.4682 49.7267 24.792C50.3779 23.8138 49.0633 22.4251 48.0743 23.1496Z" fill="white"/>
<path fill-rule="evenodd" clip-rule="evenodd" d="M50.8727 32.3515C51.5361 32.2308 52.1391 31.7115 52.7663 31.47C53.309 31.2647 53.6708 30.7575 53.502 30.1658C53.3573 29.6223 52.7422 29.248 52.1994 29.4291C51.5361 29.6344 50.8245 29.9001 50.2818 30.3348C49.7993 30.7213 49.1722 31.5545 49.4616 32.2187C49.6546 32.6655 50.523 32.4119 50.8727 32.3515Z" fill="white"/>
<path fill-rule="evenodd" clip-rule="evenodd" d="M50.8726 38.317C52.2113 39.3555 53.936 39.3917 55.4315 38.643C56.4326 38.1479 55.721 36.409 54.6597 36.8196C53.4415 37.3026 52.0545 36.9162 50.9449 37.7373C50.7761 37.8702 50.6675 38.16 50.8726 38.317Z" fill="white"/>
<path fill-rule="evenodd" clip-rule="evenodd" d="M22.5299 36.7351C22.2887 36.397 21.758 36.3245 21.5289 36.7351C21.2515 37.2544 21.2876 37.677 21.2032 38.2446C21.1067 38.8605 21.0464 39.4401 21.0464 40.056C21.0344 41.6621 23.5551 41.6621 23.531 40.056C23.5189 39.4401 23.5189 38.8363 23.3742 38.2446C23.2174 37.6529 22.8797 37.2181 22.5299 36.7351Z" fill="white"/>
<path fill-rule="evenodd" clip-rule="evenodd" d="M78.8536 48.5333C78.7692 48.2314 78.5039 47.9778 78.2988 47.7483C77.9732 47.374 77.5028 47.0962 77.1048 46.7943C76.7792 46.5528 76.2726 46.6736 76.0073 46.9392C75.6214 47.3136 75.7058 47.8329 76.0073 48.2193C76.2968 48.5937 76.6465 48.9197 77.0204 49.1975C77.1772 49.3182 77.334 49.4752 77.5028 49.5718C77.6717 49.6805 77.8526 49.6926 78.0576 49.753C78.5039 49.8979 78.8416 49.5235 78.8898 49.125C78.9019 49.0284 78.9019 48.7023 78.8536 48.5333Z" fill="white"/>
<path fill-rule="evenodd" clip-rule="evenodd" d="M82.725 46.0577C82.725 46.0336 82.7008 45.9973 82.6767 45.9249C82.6164 45.7558 82.5561 45.5988 82.5079 45.4298C82.4234 45.152 82.3028 44.8743 82.2908 44.5845C82.1943 43.2803 80.2404 43.2561 80.2525 44.5845C80.2525 45.2849 80.4334 45.937 80.7108 46.5649C80.8676 46.9272 81.0606 47.2049 81.4103 47.4102C81.543 47.4827 81.6877 47.5431 81.8325 47.5793C81.748 47.5552 81.748 47.531 81.8445 47.6397C82.2184 48.0503 82.8697 47.8087 83.0265 47.3257C83.1833 46.8668 83.0265 46.42 82.725 46.0577Z" fill="white"/>
<path fill-rule="evenodd" clip-rule="evenodd" d="M62.306 6.7505C61.1843 5.92933 60.0627 5.1444 59.1099 4.11794C58.0365 2.95865 58.4224 1.34047 57.4696 0.144949C57.3249 -0.0361906 56.951 -0.0361906 56.7942 0.144949C56.7098 0.253632 56.6253 0.362316 56.553 0.471C56.2876 0.531379 56.0464 0.712519 55.962 1.02649C55.6122 2.31862 55.4313 3.39338 54.4906 4.44399C53.9117 5.09609 53.2242 5.57913 52.5488 6.08632C51.6201 6.03802 50.8482 6.25538 50.5467 7.41468C50.3417 8.19961 50.9327 9.04493 51.7769 9.02078C53.5378 8.98455 54.37 9.33475 54.973 11.0375C55.2745 11.9069 55.5519 12.9455 56.2997 13.5493C57.0595 14.1531 58.2897 13.827 58.2897 12.7281C58.2897 11.7983 58.3139 11.0737 58.6033 10.2163C59.1099 8.74303 60.0868 8.62227 61.4014 8.87587C62.7522 9.12946 63.3673 7.52336 62.306 6.7505ZM57.7229 7.41468C57.1922 7.87356 56.8304 8.40491 56.565 8.98455C56.4324 8.63435 56.2635 8.32037 56.0585 8.0547C55.769 7.69242 55.4313 7.41468 55.0816 7.20938C55.4675 6.88333 55.8414 6.54521 56.2032 6.15878C56.5047 5.83273 56.758 5.4946 56.9751 5.1444C57.4334 5.73612 58.0003 6.29161 58.5913 6.7988C58.3259 6.94371 58.0365 7.13693 57.7229 7.41468Z" fill="white"/>
<path fill-rule="evenodd" clip-rule="evenodd" d="M126.71 82.3339C125.902 81.3799 124.95 80.5708 124.081 79.6772C123.032 78.6024 122.61 77.3948 121.971 76.0786C121.645 75.4023 120.487 75.4748 120.234 76.1631C120.101 76.2597 119.993 76.4046 119.969 76.6099C119.679 78.7232 118.268 81.2471 115.916 81.5127C114.372 81.6939 114.3 84.0728 115.916 83.9883C117.593 83.8917 119.691 84.5076 119.595 86.6209C119.534 87.8164 119.546 88.5168 120.535 89.2776C120.945 89.5916 121.536 89.3983 121.886 89.1085C122.646 88.4564 122.996 87.6111 123.309 86.6692C123.719 85.4374 124.117 83.8193 125.613 84.2057C126.771 84.5076 127.41 83.1671 126.71 82.3339ZM122.646 83.0102C122.176 83.626 121.898 84.4351 121.609 85.2201C121.355 84.5438 120.97 83.8313 120.584 83.3C120.282 82.8773 119.896 82.5754 119.486 82.3339C120.198 81.6094 120.74 80.7037 121.09 79.7014C121.717 80.607 122.586 81.4161 123.43 82.2132C123.165 82.4064 122.911 82.66 122.646 83.0102Z" fill="white"/>
</g>
<defs>
<clipPath id="clip0_426_6186">
<rect width="127" height="131" fill="white"/>
</clipPath>
</defs>
</svg>
